<svg width="449" height="134" viewBox="0 0 449 134" fill="none" xmlns="http://www.w3.org/2000/svg">
<g clip-path="url(#clip0_4_16575)">
<path d="M373.827 113.933C379.549 112.353 404.905 107.096 398.148 97.6146C391.451 88.1031 366.673 85.2466 366.673 85.2466C366.673 85.2466 366.217 112.049 366.034 117.215C366.004 118.279 366.065 119.342 366.491 120.406C366.156 118.096 368.104 115.544 373.827 113.933Z" fill="url(#paint0_linear_4_16575)"/>
<g opacity="0.6">
<path d="M373.828 113.933C379.55 112.353 404.906 107.096 398.149 97.6146C391.452 88.1031 366.674 85.2466 366.674 85.2466C366.674 85.2466 366.218 112.049 366.035 117.215C366.005 118.279 366.066 119.342 366.492 120.406C366.157 118.096 368.105 115.544 373.828 113.933Z" fill="url(#paint1_linear_4_16575)"/>
</g>
<path d="M373.827 113.933C379.549 112.353 404.905 107.096 398.148 97.6146C391.451 88.1031 366.673 85.2466 366.673 85.2466C366.673 85.2466 366.217 112.049 366.034 117.215C366.004 118.279 366.065 119.342 366.491 120.406C366.156 118.096 368.104 115.544 373.827 113.933Z" fill="#930303"/>
<path d="M399.213 99.7112C401.039 107.886 379.123 112.474 373.826 113.903C368.104 115.513 366.155 118.066 366.46 120.406C367.982 124.538 374.313 128.55 394.921 131.528C420.794 135.265 441.919 132.166 441.919 132.166C441.919 132.166 422.134 119.099 411.936 104.057C411.936 104.057 432.118 93.664 448.403 80.1716C448.403 80.1716 412.515 75.0664 395.042 71.3894L399.213 99.7112Z" fill="url(#paint2_linear_4_16575)"/>
<path d="M411.906 104.057C411.906 104.057 414.158 102.537 417.598 100.319C419.333 99.225 421.281 97.888 423.442 96.5509C425.573 95.1226 427.856 93.6336 430.108 92.1446C431.296 91.3849 432.452 90.6556 433.548 89.9566C434.096 89.592 434.705 89.2273 435.253 88.8627C435.77 88.498 436.288 88.103 436.866 87.7687C438.905 86.3101 440.945 85.0034 442.649 83.879C444.354 82.7546 445.785 81.843 446.759 81.1744C447.824 80.5667 448.372 80.1716 448.372 80.1716C448.372 80.1716 447.855 80.5971 446.911 81.296C445.906 81.9949 444.567 83.0281 442.954 84.274C441.28 85.4592 439.332 86.8874 437.292 88.3461C436.714 88.7107 436.196 89.1058 435.679 89.4704C435.131 89.8351 434.553 90.2301 434.005 90.5644C432.939 91.3241 431.752 92.0534 430.595 92.8435C428.312 94.2718 426.029 95.7608 423.868 97.1283C421.677 98.4957 419.607 99.6809 417.841 100.714C416.076 101.778 414.615 102.568 413.549 103.176C412.484 103.753 411.906 104.057 411.906 104.057Z" fill="url(#paint3_radial_4_16575)"/>
<path d="M373.826 125.906C373.826 125.906 374.8 126.362 376.565 126.909C378.361 127.425 380.979 128.033 384.084 128.641C385.697 128.945 387.402 129.218 389.198 129.522C390.994 129.795 392.881 130.099 394.92 130.403C398.877 130.95 403.169 131.436 407.431 131.862C409.501 132.075 411.632 132.257 413.762 132.409C415.863 132.53 417.963 132.622 419.911 132.682C421.95 132.773 423.868 132.743 425.695 132.804C427.582 132.804 429.317 132.743 430.9 132.713C432.513 132.682 433.974 132.652 435.283 132.591C436.592 132.5 437.749 132.47 438.692 132.409C440.549 132.287 441.645 132.196 441.645 132.196C441.645 132.196 440.549 132.348 438.692 132.5C437.779 132.622 436.622 132.682 435.313 132.804C434.004 132.895 432.574 132.986 430.93 133.077C429.378 133.138 427.643 133.229 425.725 133.26C423.899 133.26 421.981 133.32 419.942 133.26C418.967 133.26 417.872 133.229 416.867 133.229C415.863 133.199 414.767 133.138 413.732 133.077C411.601 132.986 409.47 132.804 407.309 132.622C403.078 132.257 398.817 131.71 394.829 131.102C392.82 130.798 390.902 130.494 389.106 130.16C387.31 129.795 385.606 129.431 383.993 129.097C380.857 128.428 378.27 127.638 376.504 127.03C375.622 126.726 374.891 126.453 374.465 126.24C374.039 126.058 373.826 125.906 373.826 125.906Z" fill="url(#paint4_radial_4_16575)"/>
<path d="M74.546 113.933C68.8234 112.353 43.4674 107.096 50.2249 97.6146C56.9216 88.1031 81.6992 85.2466 81.6992 85.2466C81.6992 85.2466 82.1558 112.049 82.3385 117.215C82.3689 118.279 82.308 119.342 81.8819 120.406C82.2167 118.096 80.2686 115.544 74.546 113.933Z" fill="url(#paint5_linear_4_16575)"/>
<g opacity="0.6">
<path d="M74.546 113.933C68.8234 112.353 43.4674 107.096 50.2249 97.6146C56.9216 88.1031 81.6992 85.2466 81.6992 85.2466C81.6992 85.2466 82.1558 112.049 82.3385 117.215C82.3689 118.279 82.308 119.342 81.8819 120.406C82.2167 118.096 80.2686 115.544 74.546 113.933Z" fill="url(#paint6_linear_4_16575)"/>
</g>
<path d="M74.546 113.933C68.8234 112.353 43.4674 107.096 50.2249 97.6146C56.9216 88.1031 81.6992 85.2466 81.6992 85.2466C81.6992 85.2466 82.1558 112.049 82.3385 117.215C82.3689 118.279 82.308 119.342 81.8819 120.406C82.2167 118.096 80.2686 115.544 74.546 113.933Z" fill="#930303"/>
<path d="M49.1597 99.7112C47.3333 107.886 69.2497 112.474 74.5461 113.903C80.2687 115.513 82.2169 118.066 81.9125 120.406C80.3905 124.538 74.0591 128.55 53.4516 131.528C27.5781 135.265 6.4532 132.166 6.4532 132.166C6.4532 132.166 26.2388 119.099 36.436 104.057C36.436 104.057 16.2547 93.664 -0.0303955 80.1716C-0.0303955 80.1716 35.8577 75.0664 53.3299 71.3894L49.1597 99.7112Z" fill="url(#paint7_linear_4_16575)"/>
<path d="M36.4665 104.057C36.4665 104.057 34.1836 102.537 30.7744 100.319C29.0393 99.225 27.0912 97.888 24.93 96.5509C22.7992 95.1226 20.5163 93.6336 18.2638 92.1446C17.0766 91.3849 15.9199 90.6556 14.8241 89.9566C14.2762 89.592 13.6674 89.2273 13.1195 88.8627C12.602 88.498 12.0846 88.103 11.5062 87.7687C9.46677 86.3101 7.42734 85.0034 5.72273 83.879C4.01812 82.7546 2.58747 81.843 1.61341 81.1744C0.548031 80.5667 0.00012207 80.1716 0.00012207 80.1716C0.00012207 80.1716 0.517592 80.5971 1.46121 81.296C2.46571 81.9949 3.80505 83.0281 5.41833 84.274C7.0925 85.4592 9.04062 86.8874 11.0801 88.3461C11.6584 88.7107 12.1759 89.1058 12.6934 89.4704C13.2108 89.8351 13.8196 90.2301 14.3675 90.5644C15.4633 91.3241 16.62 92.0534 17.7767 92.8435C20.0597 94.2718 22.3426 95.7608 24.5038 97.1283C26.6955 98.4957 28.7654 99.6809 30.5308 100.714C32.2963 101.778 33.7574 102.568 34.8228 103.176C35.8882 103.753 36.4665 104.057 36.4665 104.057Z" fill="url(#paint8_radial_4_16575)"/>
<path d="M74.5162 125.906C74.5162 125.906 73.5421 126.362 71.7766 126.909C69.9807 127.425 67.3629 128.033 64.2581 128.641C62.6448 128.945 60.9402 129.218 59.1443 129.522C57.3484 129.795 55.4611 130.099 53.4217 130.403C49.4646 130.95 45.2031 131.436 40.9111 131.862C38.8412 132.075 36.7105 132.257 34.5797 132.409C32.4794 132.53 30.3791 132.622 28.431 132.682C26.3915 132.773 24.4738 132.743 22.6779 132.804C20.7907 132.804 19.1165 132.743 17.4728 132.713C15.8595 132.682 14.3984 132.652 13.0895 132.591C11.7806 132.5 10.6239 132.47 9.68028 132.409C7.82348 132.287 6.72766 132.196 6.72766 132.196C6.72766 132.196 7.82348 132.348 9.68028 132.5C10.5935 132.622 11.7502 132.682 13.0591 132.804C14.3679 132.895 15.7986 132.986 17.4423 133.077C18.9947 133.138 20.7298 133.229 22.6475 133.26C24.4738 133.26 26.3915 133.32 28.431 133.26C29.405 133.26 30.5008 133.229 31.5053 133.229C32.5098 133.199 33.6056 133.138 34.6406 133.077C36.7713 132.986 38.9021 132.804 41.0633 132.622C45.2944 132.257 49.5559 131.71 53.5435 131.102C55.5525 130.798 57.4701 130.494 59.2661 130.16C61.062 129.795 62.7666 129.431 64.3799 129.097C67.5151 128.428 70.1025 127.638 71.868 127.03C72.7507 126.726 73.4813 126.453 73.9074 126.24C74.3336 126.058 74.5162 125.906 74.5162 125.906Z" fill="url(#paint9_radial_4_16575)"/>
<path d="M50.2253 97.6142C56.922 88.1027 81.6996 85.2462 81.6996 85.2462C104.225 82.8152 196.03 80.2018 254.352 80.2018C312.674 80.2018 344.087 82.8152 366.643 85.2462C366.643 85.2462 391.451 88.1027 398.117 97.6142C398.695 98.3435 398.969 99.0425 399.183 99.7414L394.982 71.4196C394.982 71.4196 392.273 29.9093 391.908 26.8401C391.542 23.7709 389.198 21.7652 385.363 20.3066C375.562 16.5385 319.583 6.93579 223.243 6.93579C126.872 6.93579 72.7809 16.5385 62.9794 20.3066C59.1745 21.7652 56.8306 23.7709 56.4349 26.8401C56.0697 29.8789 53.3606 71.4196 53.3606 71.4196L49.1599 99.7414C49.373 99.0425 49.6469 98.3435 50.2253 97.6142Z" fill="url(#paint10_radial_4_16575)"/>
<path d="M50.2256 97.6143C50.2256 97.6143 50.4082 97.3408 50.8344 96.8242C51.0779 96.5811 51.3214 96.2468 51.6562 95.8821C52.0519 95.5479 52.4781 95.1528 52.9651 94.7274C55.0046 93.0864 58.292 91.1416 62.8884 89.4398C67.4238 87.7685 73.1465 86.2491 79.8127 85.1551C86.6007 84.365 94.1496 83.9699 102.46 83.3318C110.739 82.6329 119.719 82.4505 129.246 81.9947C138.774 81.5997 148.819 81.0831 159.168 80.84C169.578 80.5969 180.324 80.293 191.251 80.0195C196.67 79.8979 202.179 79.7764 207.658 79.6244C213.198 79.5637 218.708 79.5333 224.248 79.4725C235.297 79.3813 246.408 79.2598 257.335 79.2902C268.172 79.4117 278.947 79.5637 289.327 79.7156C299.646 79.8979 309.691 80.4753 319.249 80.8703C324.028 81.0223 328.594 81.4477 333.129 81.7516C337.574 82.0859 341.896 82.4201 346.036 82.724C354.315 83.4837 361.864 84.2738 368.622 85.1247C375.288 86.2187 381.011 87.7381 385.546 89.4094C390.142 91.1112 393.43 93.056 395.469 94.697C395.956 95.1224 396.382 95.5175 396.778 95.8517C397.113 96.2164 397.356 96.5507 397.6 96.7938C398.026 97.3104 398.209 97.5839 398.209 97.5839C398.209 97.5839 398.026 97.3104 397.57 96.7938C397.326 96.5507 397.083 96.2164 396.748 95.8821C396.352 95.5479 395.926 95.2136 395.439 94.7881C393.399 93.1472 390.081 91.3239 385.455 89.7437C380.919 88.1939 375.197 86.7657 368.47 85.854C365.182 85.4286 361.59 85.2159 357.816 84.8512C354.011 84.5777 350.054 84.1219 345.944 83.8788C341.835 83.6357 337.513 83.3318 332.977 83.0583C328.533 82.8152 323.967 82.4505 319.188 82.3594C309.661 82.1163 299.646 81.6604 289.327 81.4781C278.917 81.3566 268.172 81.2654 257.335 81.2046C246.438 81.2046 235.328 81.4173 224.278 81.5085C218.708 81.5389 213.229 81.5693 207.689 81.5997C202.21 81.7212 196.7 81.8124 191.282 81.9339C180.384 82.1467 169.609 82.3898 159.29 82.6025C148.91 82.9064 138.865 83.2102 129.338 83.4837C119.871 83.7876 110.861 83.9092 102.551 84.5169C98.4416 84.76 94.4845 84.9728 90.6491 85.1855C88.7923 85.2766 86.8746 85.3982 85.1091 85.459C83.3132 85.5805 81.6086 85.6109 79.9953 85.8844C73.2682 86.796 67.5456 88.2243 63.0101 89.7741C58.4138 91.3543 55.0959 93.1776 53.026 94.8185C52.539 95.244 52.1128 95.5782 51.7171 95.9125C51.3823 96.2468 51.1388 96.5811 50.8953 96.8242C50.4082 97.3104 50.2256 97.6143 50.2256 97.6143Z" fill="url(#paint11_radial_4_16575)"/>
</g>
<path d="M131.81 58.3682C126.901 58.3682 123.276 57.0919 120.937 54.5393C118.613 51.9867 117.451 48.0188 117.451 42.6355C117.451 32.278 122.311 27.0992 132.03 27.0992C133.356 27.0992 134.747 27.2301 136.203 27.4919C137.676 27.7537 138.903 28.1219 139.884 28.5964C140.866 29.0545 141.357 29.57 141.357 30.1426C141.357 30.5517 141.193 31.0917 140.866 31.7625C140.539 32.417 140.154 32.9979 139.713 33.5052C139.271 34.0124 138.878 34.266 138.535 34.266C138.436 34.266 138.199 34.1842 137.823 34.0206C137.005 33.6933 136.146 33.4234 135.246 33.2106C134.346 32.9816 133.233 32.867 131.908 32.867C129.339 32.867 127.433 33.6852 126.189 35.3214C124.962 36.9413 124.348 39.3957 124.348 42.6846C124.348 45.9735 124.97 48.4524 126.213 50.1214C127.457 51.7904 129.322 52.6249 131.81 52.6249C133.069 52.6249 134.207 52.5185 135.221 52.3058V46.7834H131.368C130.91 46.7834 130.574 46.6116 130.361 46.268C130.165 45.9244 130.067 45.3681 130.067 44.599V43.2C130.067 42.4473 130.165 41.8992 130.361 41.5556C130.574 41.212 130.91 41.0401 131.368 41.0401H140.228C140.85 41.0401 141.3 41.1792 141.578 41.4574C141.856 41.7192 141.995 42.1528 141.995 42.7582V54.9075C141.995 56.2165 140.899 57.1246 138.706 57.6318C136.514 58.1227 134.215 58.3682 131.81 58.3682ZM153.138 58.3682C150.913 58.3682 149.277 57.7873 148.229 56.6255C147.199 55.4474 146.683 53.893 146.683 51.9622C146.683 50.5059 146.986 49.1969 147.591 48.0352C148.197 46.8571 149.424 45.8671 151.273 45.0654C153.122 44.2636 155.764 43.8627 159.201 43.8627V42.4146C159.201 41.5638 158.931 40.9338 158.391 40.5247C157.851 40.1157 156.992 39.9111 155.813 39.9111C154.832 39.9111 153.989 40.0175 153.285 40.2302C152.582 40.4266 151.821 40.6965 151.003 41.0401C150.577 41.2365 150.316 41.3347 150.217 41.3347C149.923 41.3347 149.596 41.1138 149.236 40.672C148.892 40.2302 148.589 39.723 148.328 39.1503C148.066 38.5776 147.935 38.144 147.935 37.8494C147.935 37.3422 148.295 36.8595 149.015 36.4013C149.751 35.9268 150.757 35.5505 152.034 35.2723C153.31 34.9778 154.725 34.8305 156.28 34.8305C159.552 34.8305 161.933 35.485 163.422 36.794C164.911 38.0867 165.656 39.862 165.656 42.1201V50.2932C165.656 51.6513 165.688 52.7067 165.754 53.4594C165.836 54.2121 165.942 54.9566 166.073 55.6929C166.155 56.1347 166.196 56.4456 166.196 56.6255C166.196 56.9528 165.885 57.2228 165.263 57.4355C164.657 57.6482 163.962 57.8036 163.177 57.9018C162.391 58 161.761 58.0491 161.287 58.0491C160.78 58.0491 160.411 57.8364 160.182 57.4109C159.97 56.9692 159.798 56.3719 159.667 55.6192C159.651 55.5211 159.634 55.4229 159.618 55.3247C159.601 55.2265 159.577 55.1284 159.544 55.0302C159.381 55.3411 159.029 55.7583 158.489 56.2819C157.965 56.8055 157.245 57.2882 156.329 57.73C155.413 58.1554 154.349 58.3682 153.138 58.3682ZM155.274 53.2385C156.092 53.2385 156.861 52.9849 157.581 52.4776C158.301 51.954 158.841 51.2913 159.201 50.4896V48.0843C155.126 48.0843 153.089 49.156 153.089 51.2995C153.089 51.8722 153.277 52.3385 153.654 52.6985C154.046 53.0585 154.586 53.2385 155.274 53.2385ZM196.409 34.8305C198.585 34.8305 200.189 35.4032 201.22 36.5486C202.267 37.694 202.791 39.4693 202.791 41.8746V56.6992C202.791 57.6155 201.907 58.0736 200.14 58.0736H198.937C197.203 58.0736 196.335 57.6155 196.335 56.6992V42.8564C196.335 41.9728 196.131 41.302 195.722 40.8438C195.329 40.3856 194.667 40.1566 193.734 40.1566C192.916 40.1566 192.22 40.4102 191.648 40.9174C191.091 41.4083 190.641 41.981 190.298 42.6355V56.6992C190.298 57.6155 189.422 58.0736 187.671 58.0736H186.444C184.71 58.0736 183.843 57.6155 183.843 56.6992V42.8564C183.843 41.9728 183.638 41.302 183.229 40.8438C182.836 40.3856 182.182 40.1566 181.266 40.1566C180.48 40.1566 179.785 40.4184 179.179 40.942C178.59 41.4656 178.14 42.0464 177.829 42.6846V56.6992C177.829 57.6155 176.946 58.0736 175.179 58.0736H173.976C172.242 58.0736 171.374 57.6155 171.374 56.6992V42.8564C171.374 40.762 171.235 39.0194 170.957 37.6285C170.875 37.1868 170.834 36.8759 170.834 36.6959C170.834 36.3686 171.137 36.1068 171.742 35.9105C172.364 35.6978 173.06 35.5423 173.829 35.4441C174.614 35.346 175.244 35.2969 175.719 35.2969C176.226 35.2969 176.578 35.485 176.774 35.8614C176.987 36.2377 177.175 36.7859 177.338 37.5058L177.486 38.144C178.173 37.2113 179.089 36.4259 180.235 35.7877C181.38 35.1496 182.615 34.8305 183.941 34.8305C185.446 34.8305 186.665 35.1005 187.598 35.6405C188.547 36.1805 189.242 37.0149 189.684 38.144C190.42 37.2113 191.386 36.4259 192.58 35.7877C193.775 35.1496 195.051 34.8305 196.409 34.8305ZM218.891 58.3682C215.063 58.3682 212.207 57.3455 210.326 55.3002C208.444 53.2385 207.503 50.3832 207.503 46.7343C207.503 42.6273 208.444 39.6166 210.326 37.7022C212.207 35.7877 214.801 34.8305 218.106 34.8305C220.299 34.8305 222.09 35.3296 223.481 36.3277C224.888 37.3258 225.911 38.6676 226.549 40.3529C227.204 42.0383 227.531 43.9445 227.531 46.0717C227.531 46.3171 227.384 46.6443 227.089 47.0534C226.811 47.4625 226.492 47.8306 226.132 48.1579C225.772 48.4851 225.494 48.6488 225.297 48.6488H214.179C214.326 50.3178 214.817 51.504 215.652 52.2076C216.502 52.8949 217.681 53.2385 219.186 53.2385C220.004 53.2385 220.74 53.1485 221.395 52.9685C222.066 52.7721 222.777 52.5185 223.53 52.2076C223.988 51.9949 224.299 51.8886 224.463 51.8886C224.757 51.8886 225.076 52.1013 225.42 52.5267C225.78 52.9358 226.083 53.4103 226.328 53.9503C226.59 54.4902 226.721 54.9075 226.721 55.202C226.721 55.8729 226.263 56.4456 225.346 56.9201C224.446 57.3946 223.375 57.7546 222.131 58C220.904 58.2454 219.824 58.3682 218.891 58.3682ZM221.248 44.3536C221.248 43.0118 220.986 41.9401 220.462 41.1383C219.939 40.3202 219.153 39.9111 218.106 39.9111C215.946 39.9111 214.637 41.3919 214.179 44.3536H221.248ZM255.683 58.3682C252.705 58.3682 250.168 57.7627 248.074 56.5519C245.996 55.3411 244.409 53.5739 243.313 51.2504C242.233 48.9106 241.693 46.0635 241.693 42.7091C241.693 39.3712 242.233 36.5404 243.313 34.2169C244.409 31.8771 245.996 30.1099 248.074 28.9154C250.168 27.7046 252.705 27.0992 255.683 27.0992C258.677 27.0992 261.213 27.7046 263.291 28.9154C265.386 30.1099 266.973 31.8771 268.053 34.2169C269.133 36.5404 269.673 39.3712 269.673 42.7091C269.673 46.0635 269.133 48.9106 268.053 51.2504C266.973 53.5739 265.386 55.3411 263.291 56.5519C261.213 57.7627 258.677 58.3682 255.683 58.3682ZM255.683 52.6249C258.023 52.6249 259.79 51.7822 260.984 50.0969C262.179 48.3951 262.776 45.9326 262.776 42.7091C262.776 39.4857 262.179 37.0395 260.984 35.3705C259.79 33.7015 258.023 32.867 255.683 32.867C253.359 32.867 251.592 33.7097 250.381 35.395C249.187 37.064 248.59 39.5021 248.59 42.7091C248.59 45.9326 249.195 48.3951 250.406 50.0969C251.617 51.7822 253.376 52.6249 255.683 52.6249ZM281.503 58.0736C280.816 58.0736 280.259 58.0082 279.834 57.8773C279.425 57.7464 279.163 57.5091 279.049 57.1655L272.127 36.8431C272.111 36.745 272.078 36.6141 272.029 36.4504C271.98 36.2704 271.955 36.1395 271.955 36.0577C271.955 35.7305 272.168 35.4932 272.593 35.346C273.019 35.1823 273.69 35.1005 274.606 35.1005H276.03C276.733 35.1005 277.298 35.1742 277.723 35.3214C278.149 35.4523 278.41 35.6814 278.509 36.0086L281.061 44.0591C281.143 44.3536 281.397 45.4171 281.822 47.2498L282.288 49.336H282.485C282.992 46.7671 283.393 45.0081 283.687 44.0591L286.264 36.0086C286.363 35.6814 286.616 35.4523 287.025 35.3214C287.451 35.1742 288.015 35.1005 288.719 35.1005H289.799C290.699 35.1005 291.353 35.1823 291.762 35.346C292.188 35.4932 292.4 35.7305 292.4 36.0577C292.4 36.3195 292.36 36.5813 292.278 36.8431L285.332 57.1655C285.234 57.4928 284.972 57.73 284.546 57.8773C284.137 58.0082 283.589 58.0736 282.902 58.0736H281.503ZM306.022 58.3682C302.193 58.3682 299.338 57.3455 297.456 55.3002C295.575 53.2385 294.634 50.3832 294.634 46.7343C294.634 42.6273 295.575 39.6166 297.456 37.7022C299.338 35.7877 301.932 34.8305 305.237 34.8305C307.429 34.8305 309.221 35.3296 310.612 36.3277C312.019 37.3258 313.042 38.6676 313.68 40.3529C314.335 42.0383 314.662 43.9445 314.662 46.0717C314.662 46.3171 314.514 46.6443 314.22 47.0534C313.942 47.4625 313.623 47.8306 313.263 48.1579C312.903 48.4851 312.625 48.6488 312.428 48.6488H301.31C301.457 50.3178 301.948 51.504 302.782 52.2076C303.633 52.8949 304.811 53.2385 306.317 53.2385C307.135 53.2385 307.871 53.1485 308.526 52.9685C309.197 52.7721 309.908 52.5185 310.661 52.2076C311.119 51.9949 311.43 51.8886 311.594 51.8886C311.888 51.8886 312.207 52.1013 312.551 52.5267C312.911 52.9358 313.214 53.4103 313.459 53.9503C313.721 54.4902 313.852 54.9075 313.852 55.202C313.852 55.8729 313.394 56.4456 312.477 56.9201C311.577 57.3946 310.506 57.7546 309.262 58C308.035 58.2454 306.955 58.3682 306.022 58.3682ZM308.379 44.3536C308.379 43.0118 308.117 41.9401 307.593 41.1383C307.07 40.3202 306.284 39.9111 305.237 39.9111C303.077 39.9111 301.768 41.3919 301.31 44.3536H308.379ZM321.681 58.0736C319.947 58.0736 319.08 57.6155 319.08 56.6992V42.8564C319.08 40.762 318.941 39.0194 318.662 37.6285C318.581 37.1868 318.54 36.8759 318.54 36.6959C318.54 36.3686 318.842 36.1068 319.448 35.9105C320.07 35.6978 320.765 35.5423 321.534 35.4441C322.319 35.346 322.949 35.2969 323.424 35.2969C323.931 35.2969 324.283 35.485 324.479 35.8614C324.692 36.2377 324.88 36.7859 325.044 37.5058L325.191 38.144C325.747 37.1295 326.386 36.3277 327.106 35.7387C327.842 35.1332 328.783 34.8305 329.928 34.8305C330.877 34.8305 331.532 35.076 331.892 35.5669C332.252 36.0414 332.432 36.5813 332.432 37.1868C332.432 37.514 332.374 37.9803 332.26 38.5858C332.145 39.1748 331.982 39.6984 331.769 40.1566C331.556 40.6147 331.319 40.8438 331.057 40.8438C330.877 40.8438 330.607 40.7947 330.247 40.6965C329.756 40.5656 329.339 40.5002 328.995 40.5002C328.194 40.5002 327.49 40.7293 326.885 41.1874C326.296 41.6292 325.846 42.1283 325.535 42.6846V56.6992C325.535 57.6155 324.651 58.0736 322.884 58.0736H321.681Z" fill="white"/>
<defs>
<linearGradient id="paint0_linear_4_16575" x1="307.267" y1="112.23" x2="394.255" y2="98.385" gradientUnits="userSpaceOnUse">
<stop stop-color="#1200D8"/>
<stop offset="0.2747" stop-color="#2A00D9"/>
<stop offset="0.4659" stop-color="#3600D9"/>
<stop offset="0.6404" stop-color="#3200D8"/>
<stop offset="0.8118" stop-color="#2600D4"/>
<stop offset="0.9815" stop-color="#1300CD"/>
<stop offset="1" stop-color="#1000CC"/>
</linearGradient>
<linearGradient id="paint1_linear_4_16575" x1="307.268" y1="112.23" x2="394.255" y2="98.385" gradientUnits="userSpaceOnUse">
<stop stop-color="#1200D8"/>
<stop offset="0.1937" stop-color="#1D00D4"/>
<stop offset="0.4659" stop-color="#2900CF"/>
<stop offset="0.6558" stop-color="#2500CB"/>
<stop offset="0.8421" stop-color="#1900C0"/>
<stop offset="1" stop-color="#0900B1"/>
</linearGradient>
<linearGradient id="paint2_linear_4_16575" x1="366.418" y1="102.394" x2="448.367" y2="102.394" gradientUnits="userSpaceOnUse">
<stop offset="0.0223" stop-color="#FE7171"/>
<stop offset="0.1692" stop-color="#FF3434"/>
<stop offset="0.3995" stop-color="#FF5E5E"/>
<stop offset="0.8353" stop-color="#A80000"/>
</linearGradient>
<radialGradient id="paint3_radial_4_16575" cx="0" cy="0" r="1" gradientUnits="userSpaceOnUse" gradientTransform="translate(430.135 92.1011) rotate(180) scale(12.9078 160.243)">
<stop offset="0.3194" stop-color="#FF9A9A"/>
<stop offset="1" stop-color="#EA4E4E"/>
</radialGradient>
<radialGradient id="paint4_radial_4_16575" cx="0" cy="0" r="1" gradientUnits="userSpaceOnUse" gradientTransform="translate(407.729 129.592) rotate(180) scale(24.0056 49.5182)">
<stop offset="0.3194" stop-color="#FF9A9A"/>
<stop offset="1" stop-color="#EA4E4E"/>
</radialGradient>
<linearGradient id="paint5_linear_4_16575" x1="141.101" y1="112.231" x2="54.1113" y2="98.3848" gradientUnits="userSpaceOnUse">
<stop stop-color="#1200D8"/>
<stop offset="0.2747" stop-color="#2A00D9"/>
<stop offset="0.4659" stop-color="#3600D9"/>
<stop offset="0.6404" stop-color="#3200D8"/>
<stop offset="0.8118" stop-color="#2600D4"/>
<stop offset="0.9815" stop-color="#1300CD"/>
<stop offset="1" stop-color="#1000CC"/>
</linearGradient>
<linearGradient id="paint6_linear_4_16575" x1="141.101" y1="112.231" x2="54.1113" y2="98.3848" gradientUnits="userSpaceOnUse">
<stop stop-color="#1200D8"/>
<stop offset="0.1937" stop-color="#1D00D4"/>
<stop offset="0.4659" stop-color="#2900CF"/>
<stop offset="0.6558" stop-color="#2500CB"/>
<stop offset="0.8421" stop-color="#1900C0"/>
<stop offset="1" stop-color="#0900B1"/>
</linearGradient>
<linearGradient id="paint7_linear_4_16575" x1="-0.0423096" y1="102.394" x2="81.9072" y2="102.394" gradientUnits="userSpaceOnUse">
<stop offset="0.0223" stop-color="#FE7171"/>
<stop offset="0.1692" stop-color="#FF3434"/>
<stop offset="0.3995" stop-color="#FF5E5E"/>
<stop offset="0.8353" stop-color="#A80000"/>
</linearGradient>
<radialGradient id="paint8_radial_4_16575" cx="0" cy="0" r="1" gradientUnits="userSpaceOnUse" gradientTransform="translate(18.2298 92.1011) rotate(180) scale(12.9078 160.243)">
<stop offset="0.3194" stop-color="#FF9A9A"/>
<stop offset="1" stop-color="#EA4E4E"/>
</radialGradient>
<radialGradient id="paint9_radial_4_16575" cx="0" cy="0" r="1" gradientUnits="userSpaceOnUse" gradientTransform="translate(40.6153 129.592) rotate(180) scale(23.9948 49.5182)">
<stop offset="0.3194" stop-color="#FF9A9A"/>
<stop offset="1" stop-color="#EA4E4E"/>
</radialGradient>
<radialGradient id="paint10_radial_4_16575" cx="0" cy="0" r="1" gradientUnits="userSpaceOnUse" gradientTransform="translate(225.217 88.1015) rotate(180) scale(178.291 177.991)">
<stop offset="0.0863" stop-color="#FF6363"/>
<stop offset="0.6005" stop-color="#ED0000"/>
<stop offset="0.8308" stop-color="#E00000"/>
<stop offset="0.9777" stop-color="#FF4242"/>
</radialGradient>
<radialGradient id="paint11_radial_4_16575" cx="0" cy="0" r="1" gradientUnits="userSpaceOnUse" gradientTransform="translate(224.183 88.4397) rotate(180) scale(123.174 122.967)">
<stop offset="0.3194" stop-color="#FF9A9A"/>
<stop offset="1" stop-color="#EA4E4E"/>
</radialGradient>
<clipPath id="clip0_4_16575">
<rect width="448.372" height="126.445" fill="white" transform="translate(0 6.93579)"/>
</clipPath>
</defs>
</svg>
