<svg width="301" height="52" viewBox="0 0 301 52" fill="none" xmlns="http://www.w3.org/2000/svg">
<path d="M67.1387 41.7309C65.5028 41.7309 64.0449 41.4471 62.7651 40.8796C61.4853 40.3009 60.4726 39.4496 59.727 38.3256C58.9925 37.1905 58.6253 35.7771 58.6253 34.0856C58.6253 32.6611 58.8868 31.4648 59.4098 30.4966C59.9329 29.5284 60.6451 28.7494 61.5465 28.1596C62.448 27.5698 63.4718 27.1246 64.618 26.8242C65.7754 26.5237 66.9884 26.3123 68.2571 26.1898C69.7483 26.034 70.9502 25.8894 71.8627 25.7558C72.7753 25.6112 73.4374 25.3997 73.8492 25.1215C74.261 24.8433 74.4668 24.4315 74.4668 23.8862V23.7861C74.4668 22.7289 74.133 21.9109 73.4653 21.3322C72.8087 20.7535 71.8739 20.4642 70.6609 20.4642C69.3811 20.4642 68.3628 20.748 67.6061 21.3155C66.8493 21.872 66.3485 22.5731 66.1037 23.4188L59.5267 22.8847C59.8606 21.3267 60.5171 19.9801 61.4965 18.845C62.4758 17.6987 63.7389 16.8196 65.2857 16.2075C66.8437 15.5843 68.6466 15.2727 70.6942 15.2727C72.1187 15.2727 73.4819 15.4396 74.784 15.7735C76.0972 16.1073 77.2601 16.6248 78.2728 17.3259C79.2966 18.027 80.1035 18.9284 80.6933 20.0302C81.2831 21.1208 81.578 22.4284 81.578 23.953V41.2468H74.8341V37.6912H74.6338C74.222 38.4925 73.6711 39.1992 72.9812 39.8112C72.2912 40.4122 71.4621 40.8851 70.4939 41.2301C69.5257 41.564 68.4073 41.7309 67.1387 41.7309ZM69.1752 36.8232C70.2213 36.8232 71.1449 36.6173 71.9462 36.2056C72.7475 35.7827 73.3762 35.2151 73.8325 34.5029C74.2888 33.7907 74.5169 32.9838 74.5169 32.0824V29.3615C74.2943 29.5062 73.9883 29.6397 73.5988 29.7621C73.2204 29.8734 72.792 29.9791 72.3134 30.0793C71.8349 30.1683 71.3564 30.2518 70.8779 30.3297C70.3993 30.3965 69.9653 30.4577 69.5758 30.5133C68.7412 30.6357 68.0122 30.8305 67.389 31.0976C66.7658 31.3646 66.2818 31.7263 65.9368 32.1826C65.5918 32.6277 65.4193 33.1842 65.4193 33.8519C65.4193 34.8201 65.7698 35.5601 66.4709 36.072C67.1832 36.5728 68.0846 36.8232 69.1752 36.8232ZM94.2062 26.4235V41.2468H87.095V15.6066H93.8723V20.1303H94.1728C94.7403 18.6391 95.6918 17.4595 97.0273 16.5914C98.3627 15.7123 99.9819 15.2727 101.885 15.2727C103.665 15.2727 105.218 15.6622 106.542 16.4412C107.867 17.2202 108.896 18.3331 109.63 19.7798C110.365 21.2154 110.732 22.9292 110.732 24.9212V41.2468H103.621V26.1898C103.632 24.6207 103.231 23.3966 102.419 22.5174C101.607 21.6271 100.488 21.182 99.0638 21.182C98.1067 21.182 97.261 21.3879 96.5265 21.7996C95.8031 22.2114 95.2356 22.8123 94.8238 23.6024C94.4232 24.3814 94.2173 25.3218 94.2062 26.4235ZM123.448 26.4235V41.2468H116.337V7.0598H123.248V20.1303H123.548C124.127 18.6168 125.062 17.4316 126.352 16.5747C127.643 15.7067 129.263 15.2727 131.21 15.2727C132.991 15.2727 134.543 15.6622 135.867 16.4412C137.203 17.2091 138.238 18.3164 138.972 19.7631C139.718 21.1987 140.085 22.918 140.074 24.9212V41.2468H132.963V26.1898C132.974 24.6096 132.573 23.3799 131.761 22.5007C130.96 21.6216 129.836 21.182 128.389 21.182C127.421 21.182 126.564 21.3879 125.818 21.7996C125.084 22.2114 124.505 22.8123 124.082 23.6024C123.67 24.3814 123.459 25.3218 123.448 26.4235ZM157.255 41.7476C154.629 41.7476 152.37 41.1912 150.478 40.0783C148.597 38.9543 147.15 37.3963 146.138 35.4043C145.136 33.4123 144.635 31.1198 144.635 28.5268C144.635 25.9005 145.142 23.5969 146.154 21.616C147.178 19.624 148.631 18.0715 150.511 16.9587C152.392 15.8347 154.629 15.2727 157.222 15.2727C159.459 15.2727 161.417 15.6789 163.098 16.4913C164.778 17.3037 166.108 18.4443 167.087 19.9133C168.067 21.3823 168.606 23.1072 168.707 25.0881H161.996C161.807 23.8083 161.306 22.7789 160.494 21.9999C159.692 21.2098 158.641 20.8147 157.339 20.8147C156.237 20.8147 155.274 21.1152 154.451 21.7162C153.638 22.306 153.004 23.1684 152.548 24.3035C152.092 25.4387 151.863 26.813 151.863 28.4267C151.863 30.0626 152.086 31.4537 152.531 32.5999C152.987 33.7462 153.627 34.6198 154.451 35.2207C155.274 35.8216 156.237 36.1221 157.339 36.1221C158.151 36.1221 158.88 35.9552 159.525 35.6213C160.182 35.2875 160.722 34.8034 161.145 34.169C161.579 33.5236 161.862 32.7501 161.996 31.8487H168.707C168.595 33.8074 168.061 35.5323 167.104 37.0235C166.158 38.5036 164.85 39.661 163.181 40.4956C161.512 41.3303 159.537 41.7476 157.255 41.7476ZM180.371 26.4235V41.2468H173.259V7.0598H180.17V20.1303H180.471C181.05 18.6168 181.984 17.4316 183.275 16.5747C184.566 15.7067 186.185 15.2727 188.133 15.2727C189.913 15.2727 191.466 15.6622 192.79 16.4412C194.126 17.2091 195.161 18.3164 195.895 19.7631C196.641 21.1987 197.008 22.918 196.997 24.9212V41.2468H189.886V26.1898C189.897 24.6096 189.496 23.3799 188.684 22.5007C187.882 21.6216 186.758 21.182 185.312 21.182C184.344 21.182 183.487 21.3879 182.741 21.7996C182.007 22.2114 181.428 22.8123 181.005 23.6024C180.593 24.3814 180.382 25.3218 180.371 26.4235ZM202.593 41.2468V15.6066H209.704V41.2468H202.593ZM206.165 12.3014C205.108 12.3014 204.201 11.9508 203.444 11.2497C202.699 10.5375 202.326 9.68615 202.326 8.6957C202.326 7.71639 202.699 6.87618 203.444 6.17508C204.201 5.46285 205.108 5.10673 206.165 5.10673C207.223 5.10673 208.124 5.46285 208.87 6.17508C209.626 6.87618 210.005 7.71639 210.005 8.6957C210.005 9.68615 209.626 10.5375 208.87 11.2497C208.124 11.9508 207.223 12.3014 206.165 12.3014ZM222.512 26.4235V41.2468H215.401V15.6066H222.178V20.1303H222.478C223.046 18.6391 223.998 17.4595 225.333 16.5914C226.668 15.7123 228.288 15.2727 230.191 15.2727C231.971 15.2727 233.524 15.6622 234.848 16.4412C236.172 17.2202 237.202 18.3331 237.936 19.7798C238.671 21.2154 239.038 22.9292 239.038 24.9212V41.2468H231.927V26.1898C231.938 24.6207 231.537 23.3966 230.725 22.5174C229.912 21.6271 228.794 21.182 227.369 21.182C226.412 21.182 225.567 21.3879 224.832 21.7996C224.109 22.2114 223.541 22.8123 223.129 23.6024C222.729 24.3814 222.523 25.3218 222.512 26.4235ZM248.799 41.6808C247.697 41.6808 246.751 41.2913 245.961 40.5123C245.182 39.7222 244.793 38.7763 244.793 37.6745C244.793 36.5839 245.182 35.6491 245.961 34.8701C246.751 34.0911 247.697 33.7016 248.799 33.7016C249.867 33.7016 250.802 34.0911 251.603 34.8701C252.405 35.6491 252.805 36.5839 252.805 37.6745C252.805 38.409 252.616 39.0823 252.238 39.6944C251.87 40.2953 251.386 40.7794 250.785 41.1467C250.184 41.5028 249.522 41.6808 248.799 41.6808ZM258.644 41.2468V15.6066H265.755V41.2468H258.644ZM262.216 12.3014C261.159 12.3014 260.252 11.9508 259.495 11.2497C258.749 10.5375 258.377 9.68615 258.377 8.6957C258.377 7.71639 258.749 6.87618 259.495 6.17508C260.252 5.46285 261.159 5.10673 262.216 5.10673C263.273 5.10673 264.175 5.46285 264.92 6.17508C265.677 6.87618 266.055 7.71639 266.055 8.6957C266.055 9.68615 265.677 10.5375 264.92 11.2497C264.175 11.9508 263.273 12.3014 262.216 12.3014ZM283.036 41.7476C280.443 41.7476 278.201 41.1967 276.309 40.095C274.428 38.9822 272.976 37.4353 271.952 35.4544C270.928 33.4624 270.416 31.1532 270.416 28.5268C270.416 25.8782 270.928 23.5635 271.952 21.5826C272.976 19.5906 274.428 18.0437 276.309 16.942C278.201 15.8291 280.443 15.2727 283.036 15.2727C285.629 15.2727 287.866 15.8291 289.747 16.942C291.638 18.0437 293.096 19.5906 294.12 21.5826C295.144 23.5635 295.656 25.8782 295.656 28.5268C295.656 31.1532 295.144 33.4624 294.12 35.4544C293.096 37.4353 291.638 38.9822 289.747 40.095C287.866 41.1967 285.629 41.7476 283.036 41.7476ZM283.069 36.239C284.249 36.239 285.234 35.9051 286.024 35.2374C286.814 34.5585 287.41 33.6349 287.81 32.4664C288.222 31.2979 288.428 29.968 288.428 28.4768C288.428 26.9855 288.222 25.6557 287.81 24.4872C287.41 23.3187 286.814 22.395 286.024 21.7162C285.234 21.0373 284.249 20.6979 283.069 20.6979C281.879 20.6979 280.877 21.0373 280.065 21.7162C279.263 22.395 278.657 23.3187 278.245 24.4872C277.845 25.6557 277.644 26.9855 277.644 28.4768C277.644 29.968 277.845 31.2979 278.245 32.4664C278.657 33.6349 279.263 34.5585 280.065 35.2374C280.877 35.9051 281.879 36.239 283.069 36.239Z" fill="white"/>
<path d="M55.1927 51.604H42.3687C41.047 51.604 39.7975 50.9984 38.9773 49.9615L19.3684 25.172L29.1516 12.6349H29.1601L37.713 1.66595C38.5332 0.614106 39.7912 0 41.1235 0H54.5658C56.0618 0 56.9011 1.7212 55.9789 2.90054L38.3866 25.4036L56.6058 48.7035C57.5258 49.8828 56.6865 51.604 55.1927 51.604Z" fill="#1E6AFF"/>
<path d="M27.0055 39.9892L19.156 50.004C18.3655 51.0134 17.1522 51.6041 15.8687 51.6041H2.20539C0.798686 51.6041 0.00821072 49.9849 0.875184 48.8757L17.2542 27.8813L27.0055 39.9892Z" fill="#FFA800"/>
<path d="M26.7208 10.5099L17.0544 22.7198L1.42555 2.73054C0.558575 1.62133 1.34905 0 2.75788 0H16.4871C17.7748 0 18.9903 0.592857 19.7807 1.60858L26.7208 10.5099Z" fill="#FFA800"/>
</svg>
