<svg width="33" height="30" viewBox="0 0 33 30" fill="none" xmlns="http://www.w3.org/2000/svg">
<path d="M31.504 29.4052H24.3445C23.6066 29.4052 22.9091 29.0671 22.4512 28.4882L11.5038 14.6485L16.9656 7.64923H16.9703L21.7453 1.52542C22.2032 0.938185 22.9055 0.595337 23.6494 0.595337H31.154C31.9892 0.595337 32.4578 1.55626 31.9429 2.21467L22.1214 14.7779L32.2929 27.7859C32.8066 28.4443 32.338 29.4052 31.504 29.4052Z" fill="#1E6AFF"/>
<path d="M15.7666 22.9207L11.3843 28.5118C10.943 29.0753 10.2656 29.4051 9.5491 29.4051H1.92103C1.13568 29.4051 0.69437 28.5012 1.17839 27.8819L10.3226 16.161L15.7666 22.9207Z" fill="#FFA800"/>
<path d="M15.607 6.4629L10.2104 13.2795L1.48497 2.11976C1.00095 1.5005 1.44226 0.595337 2.2288 0.595337H9.89364C10.6126 0.595337 11.2911 0.926322 11.7324 1.49339L15.607 6.4629Z" fill="#FFA800"/>
</svg>
