<svg width="563" height="174" viewBox="0 0 563 174" fill="none" xmlns="http://www.w3.org/2000/svg">
<g clip-path="url(#clip0_8_21210)">
<path d="M469.397 149.053C476.582 147.068 508.421 140.467 499.935 128.562C491.527 116.619 460.415 113.032 460.415 113.032C460.415 113.032 459.841 146.687 459.612 153.174C459.574 154.509 459.65 155.845 460.185 157.18C459.765 154.28 462.211 151.075 469.397 149.053Z" fill="url(#paint0_linear_8_21210)"/>
<g opacity="0.6">
<path d="M469.397 149.053C476.582 147.068 508.421 140.467 499.935 128.562C491.527 116.619 460.415 113.032 460.415 113.032C460.415 113.032 459.841 146.687 459.612 153.174C459.574 154.509 459.65 155.845 460.185 157.18C459.765 154.28 462.211 151.075 469.397 149.053Z" fill="url(#paint1_linear_8_21210)"/>
</g>
<path d="M469.397 149.053C476.582 147.068 508.421 140.467 499.935 128.562C491.527 116.619 460.415 113.032 460.415 113.032C460.415 113.032 459.841 146.687 459.612 153.174C459.574 154.509 459.65 155.845 460.185 157.18C459.765 154.28 462.211 151.075 469.397 149.053Z" fill="#C64500"/>
<path d="M501.273 131.195C503.566 141.459 476.047 147.221 469.396 149.014C462.211 151.037 459.764 154.242 460.147 157.18C462.058 162.369 470.008 167.406 495.884 171.145C528.372 175.839 554.897 171.947 554.897 171.947C554.897 171.947 530.053 155.539 517.249 136.651C517.249 136.651 542.59 123.602 563.038 106.66C563.038 106.66 517.975 100.25 496.036 95.6326L501.273 131.195Z" fill="url(#paint2_linear_8_21210)"/>
<path d="M517.211 136.651C517.211 136.651 520.039 134.743 524.358 131.958C526.537 130.584 528.983 128.905 531.697 127.227C534.372 125.433 537.239 123.563 540.067 121.694C541.558 120.74 543.01 119.824 544.386 118.946C545.074 118.489 545.839 118.031 546.527 117.573C547.176 117.115 547.826 116.619 548.552 116.199C551.113 114.368 553.674 112.727 555.814 111.315C557.955 109.903 559.751 108.759 560.974 107.919C562.312 107.156 563 106.66 563 106.66C563 106.66 562.35 107.194 561.165 108.072C559.904 108.949 558.222 110.247 556.197 111.811C554.094 113.299 551.648 115.093 549.088 116.924C548.361 117.382 547.712 117.878 547.062 118.336C546.374 118.794 545.648 119.29 544.96 119.71C543.622 120.664 542.131 121.579 540.679 122.571C537.812 124.365 534.946 126.234 532.232 127.952C529.48 129.669 526.881 131.157 524.664 132.454C522.447 133.79 520.613 134.782 519.275 135.545C517.937 136.27 517.211 136.651 517.211 136.651Z" fill="url(#paint3_radial_8_21210)"/>
<path d="M469.396 164.086C469.396 164.086 470.619 164.659 472.835 165.346C475.09 165.994 478.378 166.757 482.276 167.521C484.302 167.902 486.442 168.246 488.697 168.627C490.952 168.971 493.322 169.352 495.883 169.734C500.852 170.42 506.241 171.031 511.592 171.565C514.191 171.832 516.866 172.061 519.542 172.252C522.179 172.405 524.816 172.519 527.263 172.595C529.823 172.71 532.231 172.672 534.525 172.748C536.894 172.748 539.073 172.672 541.06 172.634C543.086 172.595 544.921 172.557 546.564 172.481C548.208 172.366 549.66 172.328 550.845 172.252C553.177 172.099 554.553 171.985 554.553 171.985C554.553 171.985 553.177 172.176 550.845 172.366C549.698 172.519 548.246 172.595 546.603 172.748C544.959 172.863 543.163 172.977 541.099 173.091C539.149 173.168 536.971 173.282 534.563 173.32C532.27 173.32 529.862 173.397 527.301 173.32C526.078 173.32 524.702 173.282 523.44 173.282C522.179 173.244 520.803 173.168 519.504 173.091C516.828 172.977 514.153 172.748 511.439 172.519C506.126 172.061 500.775 171.374 495.768 170.611C493.246 170.23 490.838 169.848 488.583 169.428C486.328 168.971 484.187 168.513 482.161 168.093C478.225 167.253 474.976 166.261 472.759 165.498C471.651 165.117 470.733 164.773 470.198 164.506C469.663 164.277 469.396 164.086 469.396 164.086Z" fill="url(#paint4_radial_8_21210)"/>
<path d="M93.604 149.053C86.4184 147.068 54.58 140.467 63.0651 128.562C71.4738 116.619 102.586 113.032 102.586 113.032C102.586 113.032 103.159 146.687 103.389 153.174C103.427 154.509 103.35 155.845 102.815 157.18C103.236 154.28 100.79 151.075 93.604 149.053Z" fill="url(#paint5_linear_8_21210)"/>
<g opacity="0.6">
<path d="M93.604 149.053C86.4184 147.068 54.58 140.467 63.0651 128.562C71.4738 116.619 102.586 113.032 102.586 113.032C102.586 113.032 103.159 146.687 103.389 153.174C103.427 154.509 103.35 155.845 102.815 157.18C103.236 154.28 100.79 151.075 93.604 149.053Z" fill="url(#paint6_linear_8_21210)"/>
</g>
<path d="M93.604 149.053C86.4184 147.068 54.58 140.467 63.0651 128.562C71.4738 116.619 102.586 113.032 102.586 113.032C102.586 113.032 103.159 146.687 103.389 153.174C103.427 154.509 103.35 155.845 102.815 157.18C103.236 154.28 100.79 151.075 93.604 149.053Z" fill="#C64500"/>
<path d="M61.7276 131.195C59.4343 141.459 86.9536 147.221 93.6041 149.014C100.79 151.037 103.236 154.242 102.854 157.18C100.943 162.369 92.9926 167.406 67.1168 171.145C34.6286 175.839 8.10305 171.947 8.10305 171.947C8.10305 171.947 32.9469 155.539 45.7511 136.652C45.7511 136.652 20.4103 123.602 -0.0380859 106.66C-0.0380859 106.66 45.0248 100.25 66.9639 95.6327L61.7276 131.195Z" fill="url(#paint7_linear_8_21210)"/>
<path d="M45.7891 136.651C45.7891 136.651 42.9225 134.743 38.6418 131.958C36.4631 130.584 34.017 128.905 31.3033 127.227C28.6278 125.433 25.7612 123.563 22.9328 121.694C21.4422 120.74 19.9897 119.824 18.6138 118.946C17.9258 118.489 17.1614 118.031 16.4734 117.573C15.8236 117.115 15.1739 116.619 14.4477 116.199C11.8868 114.368 9.326 112.727 7.18561 111.315C5.04521 109.903 3.24881 108.759 2.02573 107.919C0.687984 107.156 0 106.66 0 106.66C0 106.66 0.649762 107.194 1.83462 108.072C3.09593 108.949 4.77766 110.247 6.80339 111.811C8.90557 113.299 11.3517 115.093 13.9126 116.924C14.6388 117.382 15.2885 117.878 15.9383 118.336C16.5881 118.794 17.3525 119.29 18.0405 119.71C19.4164 120.664 20.8688 121.579 22.3212 122.571C25.1878 124.365 28.0544 126.234 30.7682 127.952C33.5201 129.669 36.1191 131.157 38.336 132.454C40.5528 133.79 42.3874 134.782 43.7252 135.545C45.0629 136.27 45.7891 136.651 45.7891 136.651Z" fill="url(#paint8_radial_8_21210)"/>
<path d="M93.5652 164.086C93.5652 164.086 92.3421 164.659 90.1253 165.346C87.8702 165.994 84.5832 166.757 80.6846 167.521C78.6589 167.902 76.5185 168.246 74.2634 168.627C72.0084 168.971 69.6386 169.352 67.0778 169.734C62.109 170.42 56.758 171.031 51.3688 171.565C48.7698 171.832 46.0943 172.061 43.4188 172.252C40.7815 172.405 38.1443 172.519 35.6981 172.595C33.1373 172.71 30.7293 172.672 28.4743 172.748C26.1045 172.748 24.0024 172.672 21.9384 172.634C19.9127 172.595 18.0781 172.557 16.4345 172.481C14.791 172.366 13.3386 172.328 12.1538 172.252C9.82226 172.099 8.44629 171.985 8.44629 171.985C8.44629 171.985 9.82226 172.176 12.1538 172.366C13.3004 172.519 14.7528 172.595 16.3963 172.748C18.0398 172.863 19.8362 172.977 21.9002 173.091C23.8495 173.168 26.0281 173.282 28.436 173.32C30.7293 173.32 33.1373 173.397 35.6981 173.32C36.9212 173.32 38.2971 173.282 39.5584 173.282C40.8197 173.244 42.1957 173.168 43.4952 173.091C46.1707 172.977 48.8462 172.748 51.5599 172.519C56.8727 172.061 62.2237 171.374 67.2307 170.611C69.7533 170.23 72.1612 169.848 74.4163 169.428C76.6713 168.971 78.8117 168.513 80.8375 168.093C84.7743 167.253 88.0231 166.261 90.2399 165.498C91.3483 165.117 92.2656 164.773 92.8007 164.506C93.3358 164.277 93.5652 164.086 93.5652 164.086Z" fill="url(#paint9_radial_8_21210)"/>
<path d="M63.0653 128.562C71.474 116.619 102.586 113.032 102.586 113.032C130.87 109.98 246.145 106.698 319.377 106.698C392.609 106.698 432.054 109.98 460.376 113.032C460.376 113.032 491.526 116.619 499.897 128.562C500.623 129.478 500.967 130.356 501.234 131.233L495.96 95.671C495.96 95.671 492.558 43.5485 492.1 39.6946C491.641 35.8408 488.698 33.3224 483.882 31.4909C471.575 26.7594 401.286 14.7018 280.315 14.7018C159.307 14.7018 91.3873 26.7594 79.08 31.4909C74.3024 33.3224 71.3593 35.8408 70.8624 39.6946C70.4038 43.5104 67.0021 95.671 67.0021 95.671L61.7275 131.233C61.9951 130.356 62.3391 129.478 63.0653 128.562Z" fill="url(#paint10_radial_8_21210)"/>
<path d="M63.0654 128.563C63.0654 128.563 63.2948 128.219 63.8299 127.57C64.1356 127.265 64.4414 126.845 64.8618 126.388C65.3587 125.968 65.8938 125.472 66.5053 124.938C69.0662 122.877 73.1941 120.435 78.9655 118.298C84.6605 116.2 91.8461 114.292 100.217 112.918C108.74 111.926 118.219 111.43 128.653 110.629C139.049 109.751 150.325 109.522 162.288 108.95C174.251 108.454 186.864 107.805 199.86 107.5C212.931 107.195 226.423 106.813 240.145 106.47C246.948 106.317 253.866 106.164 260.746 105.974C267.702 105.897 274.62 105.859 281.577 105.783C295.451 105.668 309.402 105.516 323.123 105.554C336.73 105.706 350.26 105.897 363.294 106.088C376.251 106.317 388.864 107.042 400.865 107.538C406.866 107.729 412.599 108.263 418.294 108.645C423.875 109.064 429.302 109.484 434.5 109.866C444.896 110.82 454.375 111.812 462.86 112.88C471.231 114.254 478.417 116.161 484.111 118.26C489.883 120.397 494.011 122.839 496.572 124.899C497.183 125.434 497.718 125.93 498.215 126.349C498.636 126.807 498.941 127.227 499.247 127.532C499.782 128.181 500.012 128.524 500.012 128.524C500.012 128.524 499.782 128.181 499.209 127.532C498.903 127.227 498.597 126.807 498.177 126.388C497.68 125.968 497.145 125.548 496.533 125.014C493.973 122.953 489.806 120.664 483.997 118.68C478.302 116.734 471.116 114.94 462.669 113.796C458.541 113.262 454.031 112.994 449.292 112.537C444.514 112.193 439.545 111.621 434.386 111.316C429.226 111.01 423.798 110.629 418.103 110.285C412.523 109.98 406.79 109.522 400.789 109.408C388.826 109.102 376.251 108.53 363.294 108.301C350.222 108.149 336.73 108.034 323.123 107.958C309.44 107.958 295.489 108.225 281.615 108.339C274.62 108.377 267.741 108.416 260.784 108.454C253.904 108.606 246.986 108.721 240.183 108.873C226.5 109.141 212.969 109.446 200.012 109.713C186.979 110.095 174.366 110.476 162.403 110.82C150.516 111.201 139.202 111.354 128.768 112.117C123.608 112.422 118.639 112.689 113.823 112.956C111.492 113.071 109.084 113.223 106.867 113.3C104.612 113.452 102.472 113.49 100.446 113.834C91.999 114.979 84.8134 116.772 79.1184 118.718C73.347 120.702 69.1808 122.992 66.5818 125.052C65.9703 125.586 65.4352 126.006 64.9383 126.426C64.5178 126.845 64.2121 127.265 63.9063 127.57C63.2948 128.181 63.0654 128.563 63.0654 128.563Z" fill="url(#paint11_radial_8_21210)"/>
</g>
<path d="M183.64 84.2087C181.098 84.2087 179.826 83.5434 179.826 82.2127V42.2561C179.826 41.3768 180.028 40.7471 180.432 40.3669C180.836 39.963 181.478 39.761 182.357 39.761H194.726C205.229 39.761 210.48 43.7175 210.48 51.6304C210.48 54.0304 209.803 56.0977 208.448 57.8324C207.118 59.567 205.324 60.8621 203.066 61.7175V61.967C203.85 62.2997 204.67 63.0126 205.526 64.1057C206.405 65.1987 207.106 66.4344 207.629 67.8126L213.225 81.7493C213.415 82.3196 213.51 82.7236 213.51 82.9612C213.51 83.7929 212.25 84.2087 209.732 84.2087H207.13C205.015 84.2087 203.791 83.7691 203.458 82.8899L198.433 70.5215C197.957 69.571 197.494 68.8344 197.042 68.3116C196.615 67.7889 196.009 67.3968 195.225 67.1354C194.44 66.8502 193.383 66.7077 192.052 66.7077H189.593V82.2127C189.593 83.5434 188.322 84.2087 185.779 84.2087H183.64ZM195.581 58.2957C196.436 58.2957 197.244 58.0581 198.005 57.5829C198.765 57.0839 199.371 56.4185 199.823 55.5868C200.274 54.7551 200.5 53.8403 200.5 52.8422C200.5 51.369 200.013 50.2046 199.038 49.3492C198.088 48.47 196.793 48.0303 195.153 48.0303H189.593V58.2957H195.581ZM221.066 84.1018C220.187 84.1018 219.545 83.8998 219.142 83.4959C218.738 83.0919 218.536 82.4503 218.536 81.5711V42.2561C218.536 41.3768 218.738 40.7471 219.142 40.3669C219.545 39.963 220.187 39.761 221.066 39.761H244.27C244.936 39.761 245.411 40.0105 245.696 40.5095C246.005 41.0085 246.159 41.8165 246.159 42.9333V44.8581C246.159 45.9749 246.005 46.7828 245.696 47.2818C245.411 47.7808 244.936 48.0303 244.27 48.0303H228.302V57.2264H242.559C243.225 57.2264 243.7 57.4759 243.985 57.9749C244.294 58.474 244.449 59.2819 244.449 60.3987V62.3591C244.449 63.476 244.294 64.2839 243.985 64.7829C243.7 65.2819 243.225 65.5314 242.559 65.5314H228.302V75.7968H244.306C244.971 75.7968 245.447 76.0463 245.732 76.5453C246.041 77.0443 246.195 77.8404 246.195 78.9335V80.9295C246.195 82.0464 246.041 82.8543 245.732 83.3533C245.447 83.8523 244.971 84.1018 244.306 84.1018H221.066ZM265.086 84.6365C262.092 84.6365 259.455 84.3394 257.173 83.7454C254.916 83.1275 253.181 82.379 251.969 81.4998C250.781 80.6206 250.187 79.7889 250.187 79.0048C250.187 78.3869 250.413 77.6265 250.864 76.7236C251.34 75.8206 251.898 75.0483 252.54 74.4067C253.181 73.7414 253.716 73.4087 254.144 73.4087C254.405 73.4087 254.963 73.6344 255.819 74.0859C257.102 74.7513 258.314 75.2859 259.455 75.6899C260.619 76.0938 261.95 76.2958 263.447 76.2958C265.11 76.2958 266.512 75.975 267.653 75.3334C268.817 74.6681 269.399 73.5156 269.399 71.876C269.399 70.9255 269.102 70.1057 268.508 69.4166C267.914 68.7275 267.154 68.1453 266.227 67.67C265.3 67.1948 264.041 66.6364 262.449 65.9948L259.633 64.7829C257.922 63.9512 256.449 63.0364 255.213 62.0383C254.001 61.0403 253.003 59.7215 252.219 58.0819C251.459 56.4423 251.078 54.4343 251.078 52.0581C251.078 49.1591 251.791 46.7472 253.217 44.8224C254.643 42.8976 256.496 41.4838 258.777 40.5808C261.059 39.6778 263.506 39.2263 266.12 39.2263C268.259 39.2263 270.195 39.4521 271.93 39.9036C273.665 40.3313 275.019 40.8897 275.993 41.5788C276.991 42.2679 277.49 42.9571 277.49 43.6462C277.49 44.2165 277.3 44.9531 276.92 45.8561C276.564 46.7353 276.112 47.5076 275.566 48.1729C275.019 48.8383 274.508 49.1709 274.033 49.1709C273.819 49.1709 273.439 49.0521 272.892 48.8145C272.013 48.4581 271.122 48.1729 270.219 47.9591C269.34 47.7214 268.259 47.6026 266.975 47.6026C264.766 47.6026 263.233 47.9591 262.377 48.6719C261.522 49.361 261.094 50.1808 261.094 51.1313C261.094 52.2244 261.379 53.1393 261.95 53.8759C262.544 54.6126 263.28 55.2185 264.16 55.6937C265.063 56.169 266.31 56.7155 267.902 57.3334C270.302 58.3551 272.263 59.3294 273.783 60.2561C275.304 61.1591 276.611 62.4661 277.704 64.177C278.821 65.8879 279.379 68.074 279.379 70.7354C279.379 73.9909 278.69 76.6641 277.312 78.7552C275.958 80.8226 274.199 82.3196 272.037 83.2464C269.898 84.1731 267.581 84.6365 265.086 84.6365ZM303.083 84.6365C299.233 84.6365 295.93 84.0305 293.174 82.8186C290.441 81.6067 288.35 79.8602 286.9 77.579C285.451 75.274 284.726 72.5057 284.726 69.274V41.6501C284.726 40.961 285.035 40.4501 285.653 40.1174C286.271 39.761 287.233 39.5828 288.54 39.5828H290.679C291.985 39.5828 292.936 39.761 293.53 40.1174C294.148 40.4501 294.457 40.961 294.457 41.6501V68.6324C294.457 70.1057 294.813 71.4245 295.526 72.5889C296.263 73.7532 297.284 74.6681 298.591 75.3334C299.898 75.975 301.395 76.2958 303.083 76.2958C304.77 76.2958 306.267 75.975 307.574 75.3334C308.904 74.6681 309.938 73.7532 310.675 72.5889C311.411 71.4245 311.78 70.1057 311.78 68.6324V41.6501C311.78 40.961 312.077 40.4501 312.671 40.1174C313.289 39.761 314.251 39.5828 315.558 39.5828H317.661C318.968 39.5828 319.918 39.761 320.512 40.1174C321.13 40.4501 321.439 40.961 321.439 41.6501V69.274C321.439 72.5057 320.714 75.274 319.265 77.579C317.815 79.8602 315.712 81.6067 312.956 82.8186C310.223 84.0305 306.932 84.6365 303.083 84.6365ZM332.56 84.1018C331.681 84.1018 331.039 83.8998 330.635 83.4959C330.231 83.0919 330.029 82.4503 330.029 81.5711V41.6501C330.029 40.961 330.338 40.4501 330.956 40.1174C331.574 39.761 332.536 39.5828 333.843 39.5828H335.982C337.289 39.5828 338.251 39.761 338.869 40.1174C339.487 40.4501 339.796 40.961 339.796 41.6501V75.7968H353.911C354.576 75.7968 355.051 76.0463 355.336 76.5453C355.645 77.0443 355.8 77.8404 355.8 78.9335V80.9295C355.8 82.0464 355.645 82.8543 355.336 83.3533C355.051 83.8523 354.576 84.1018 353.911 84.1018H332.56ZM369.451 84.2087C366.909 84.2087 365.637 83.5434 365.637 82.2127V48.0303H355.586C354.92 48.0303 354.433 47.7808 354.124 47.2818C353.839 46.7828 353.697 45.9749 353.697 44.8581V42.9333C353.697 41.8165 353.839 41.0085 354.124 40.5095C354.433 40.0105 354.92 39.761 355.586 39.761H385.562C386.227 39.761 386.703 40.0105 386.988 40.5095C387.297 41.0085 387.451 41.8165 387.451 42.9333V44.8581C387.451 45.9749 387.297 46.7828 386.988 47.2818C386.703 47.7808 386.227 48.0303 385.562 48.0303H375.475V82.2127C375.475 83.5434 374.204 84.2087 371.661 84.2087H369.451Z" fill="black"/>
<defs>
<linearGradient id="paint0_linear_8_21210" x1="385.821" y1="146.915" x2="495.047" y2="129.53" gradientUnits="userSpaceOnUse">
<stop stop-color="#1200D8"/>
<stop offset="0.2747" stop-color="#2A00D9"/>
<stop offset="0.4659" stop-color="#3600D9"/>
<stop offset="0.6404" stop-color="#3200D8"/>
<stop offset="0.8118" stop-color="#2600D4"/>
<stop offset="0.9815" stop-color="#1300CD"/>
<stop offset="1" stop-color="#1000CC"/>
</linearGradient>
<linearGradient id="paint1_linear_8_21210" x1="385.821" y1="146.915" x2="495.047" y2="129.53" gradientUnits="userSpaceOnUse">
<stop stop-color="#1200D8"/>
<stop offset="0.1937" stop-color="#1D00D4"/>
<stop offset="0.4659" stop-color="#2900CF"/>
<stop offset="0.6558" stop-color="#2500CB"/>
<stop offset="0.8421" stop-color="#1900C0"/>
<stop offset="1" stop-color="#0900B1"/>
</linearGradient>
<linearGradient id="paint2_linear_8_21210" x1="460.093" y1="134.563" x2="562.994" y2="134.563" gradientUnits="userSpaceOnUse">
<stop offset="0.0223" stop-color="#FFC60E"/>
<stop offset="0.1692" stop-color="#E08C00"/>
<stop offset="0.3995" stop-color="#EDB800"/>
<stop offset="0.8353" stop-color="#A83F00"/>
</linearGradient>
<radialGradient id="paint3_radial_8_21210" cx="0" cy="0" r="1" gradientUnits="userSpaceOnUse" gradientTransform="translate(540.109 121.672) rotate(180) scale(19.3564 19.3239)">
<stop offset="0.3194" stop-color="#FFCE3B"/>
<stop offset="1" stop-color="#EDB800"/>
</radialGradient>
<radialGradient id="paint4_radial_8_21210" cx="0" cy="0" r="1" gradientUnits="userSpaceOnUse" gradientTransform="translate(511.979 168.742) rotate(180) scale(30.2824 30.2314)">
<stop offset="0.3194" stop-color="#FFCE3B"/>
<stop offset="1" stop-color="#EDB800"/>
</radialGradient>
<linearGradient id="paint5_linear_8_21210" x1="177.173" y1="146.915" x2="67.9451" y2="129.529" gradientUnits="userSpaceOnUse">
<stop stop-color="#1200D8"/>
<stop offset="0.2747" stop-color="#2A00D9"/>
<stop offset="0.4659" stop-color="#3600D9"/>
<stop offset="0.6404" stop-color="#3200D8"/>
<stop offset="0.8118" stop-color="#2600D4"/>
<stop offset="0.9815" stop-color="#1300CD"/>
<stop offset="1" stop-color="#1000CC"/>
</linearGradient>
<linearGradient id="paint6_linear_8_21210" x1="177.173" y1="146.915" x2="67.9451" y2="129.529" gradientUnits="userSpaceOnUse">
<stop stop-color="#1200D8"/>
<stop offset="0.1937" stop-color="#1D00D4"/>
<stop offset="0.4659" stop-color="#2900CF"/>
<stop offset="0.6558" stop-color="#2500CB"/>
<stop offset="0.8421" stop-color="#1900C0"/>
<stop offset="1" stop-color="#0900B1"/>
</linearGradient>
<linearGradient id="paint7_linear_8_21210" x1="0.000135377" y1="134.564" x2="102.9" y2="134.564" gradientUnits="userSpaceOnUse">
<stop offset="0.0223" stop-color="#FFC60E"/>
<stop offset="0.1692" stop-color="#E08C00"/>
<stop offset="0.3995" stop-color="#EDB800"/>
<stop offset="0.8353" stop-color="#A83F00"/>
</linearGradient>
<radialGradient id="paint8_radial_8_21210" cx="0" cy="0" r="1" gradientUnits="userSpaceOnUse" gradientTransform="translate(22.8854 121.672) rotate(180) scale(19.3564 19.3239)">
<stop offset="0.3194" stop-color="#FFCE3B"/>
<stop offset="1" stop-color="#EDB800"/>
</radialGradient>
<radialGradient id="paint9_radial_8_21210" cx="0" cy="0" r="1" gradientUnits="userSpaceOnUse" gradientTransform="translate(51.0092 168.742) rotate(180) scale(30.2824 30.2314)">
<stop offset="0.3194" stop-color="#FFCE3B"/>
<stop offset="1" stop-color="#EDB800"/>
</radialGradient>
<radialGradient id="paint10_radial_8_21210" cx="0" cy="0" r="1" gradientUnits="userSpaceOnUse" gradientTransform="translate(282.794 116.618) rotate(180) scale(223.871 223.495)">
<stop offset="0.0863" stop-color="#FFFC63"/>
<stop offset="0.6005" stop-color="#EDB800"/>
<stop offset="0.8308" stop-color="#E08C00"/>
<stop offset="0.9777" stop-color="#FFC60E"/>
</radialGradient>
<radialGradient id="paint11_radial_8_21210" cx="0" cy="0" r="1" gradientUnits="userSpaceOnUse" gradientTransform="translate(281.496 117.043) rotate(180) scale(154.664 154.404)">
<stop offset="0.3194" stop-color="#FFCE3B"/>
<stop offset="1" stop-color="#EDB800"/>
</radialGradient>
<clipPath id="clip0_8_21210">
<rect width="563" height="158.771" fill="white" transform="translate(0 14.7015)"/>
</clipPath>
</defs>
</svg>
