<svg width="67" height="67" viewBox="0 0 67 67" fill="none" xmlns="http://www.w3.org/2000/svg">
<path d="M55.0696 0.584961H11.0171C8.09898 0.594037 5.30301 1.75726 3.23961 3.82067C1.17621 5.88407 0.0129828 8.68004 0.00390625 11.5981V55.6507C0.0129828 58.5688 1.17621 61.3648 3.23961 63.4282C5.30301 65.4916 8.09898 66.6548 11.0171 66.6639H55.0696C57.9877 66.6548 60.7837 65.4916 62.8471 63.4282C64.9105 61.3648 66.0737 58.5688 66.0828 55.6507V11.5981C66.0737 8.68004 64.9105 5.88407 62.8471 3.82067C60.7837 1.75726 57.9877 0.594037 55.0696 0.584961ZM23.4068 47.3909C22.59 47.3909 21.7915 47.1486 21.1124 46.6948C20.4332 46.241 19.9039 45.596 19.5913 44.8414C19.2787 44.0867 19.1969 43.2563 19.3563 42.4552C19.5156 41.6541 19.909 40.9182 20.4865 40.3406C21.0641 39.763 21.8 39.3697 22.6011 39.2104C23.4023 39.051 24.2327 39.1328 24.9873 39.4454C25.7419 39.758 26.387 40.2873 26.8408 40.9665C27.2946 41.6456 27.5368 42.4441 27.5368 43.2609C27.5368 44.3563 27.1017 45.4067 26.3271 46.1812C25.5526 46.9557 24.5022 47.3909 23.4068 47.3909ZM23.4068 28.1178C22.59 28.1178 21.7915 27.8756 21.1124 27.4218C20.4332 26.968 19.9039 26.323 19.5913 25.5684C19.2787 24.8137 19.1969 23.9833 19.3563 23.1822C19.5156 22.3811 19.909 21.6452 20.4865 21.0676C21.0641 20.49 21.8 20.0967 22.6011 19.9373C23.4023 19.778 24.2327 19.8598 24.9873 20.1723C25.7419 20.4849 26.387 21.0143 26.8408 21.6934C27.2946 22.3726 27.5368 23.1711 27.5368 23.9879C27.5368 25.0832 27.1017 26.1337 26.3271 26.9082C25.5526 27.6827 24.5022 28.1178 23.4068 28.1178ZM42.6799 47.3909C41.863 47.3909 41.0646 47.1486 40.3854 46.6948C39.7062 46.241 39.1769 45.596 38.8643 44.8414C38.5517 44.0867 38.4699 43.2563 38.6293 42.4552C38.7886 41.6541 39.182 40.9182 39.7596 40.3406C40.3371 39.763 41.073 39.3697 41.8741 39.2104C42.6753 39.051 43.5057 39.1328 44.2603 39.4454C45.015 39.758 45.66 40.2873 46.1138 40.9665C46.5676 41.6456 46.8098 42.4441 46.8098 43.2609C46.8098 44.3563 46.3747 45.4067 45.6002 46.1812C44.8256 46.9557 43.7752 47.3909 42.6799 47.3909ZM42.6799 28.1178C41.863 28.1178 41.0646 27.8756 40.3854 27.4218C39.7062 26.968 39.1769 26.323 38.8643 25.5684C38.5517 24.8137 38.4699 23.9833 38.6293 23.1822C38.7886 22.3811 39.182 21.6452 39.7596 21.0676C40.3371 20.49 41.073 20.0967 41.8741 19.9373C42.6753 19.778 43.5057 19.8598 44.2603 20.1723C45.015 20.4849 45.66 21.0143 46.1138 21.6934C46.5676 22.3726 46.8098 23.1711 46.8098 23.9879C46.8098 25.0832 46.3747 26.1337 45.6002 26.9082C44.8256 27.6827 43.7752 28.1178 42.6799 28.1178Z" fill="#FF3030"/>
</svg>
