<svg width="67" height="67" viewBox="0 0 67 67" fill="none" xmlns="http://www.w3.org/2000/svg">
<path d="M55.1478 0.584961H11.0952C8.1771 0.594037 5.38114 1.75726 3.31773 3.82067C1.25433 5.88407 0.0911078 8.68004 0.0820312 11.5981V55.6507C0.0911078 58.5688 1.25433 61.3648 3.31773 63.4282C5.38114 65.4916 8.1771 66.6548 11.0952 66.6639H55.1478C58.0658 66.6548 60.8618 65.4916 62.9252 63.4282C64.9886 61.3648 66.1518 58.5688 66.1609 55.6507V11.5981C66.1518 8.68004 64.9886 5.88407 62.9252 3.82067C60.8618 1.75726 58.0658 0.594037 55.1478 0.584961ZM20.7317 52.8974C19.9149 52.8974 19.1164 52.6552 18.4372 52.2014C17.7581 51.7476 17.2287 51.1026 16.9161 50.348C16.6035 49.5933 16.5218 48.7629 16.6811 47.9618C16.8405 47.1607 17.2338 46.4248 17.8114 45.8472C18.389 45.2696 19.1248 44.8763 19.926 44.7169C20.7271 44.5576 21.5575 44.6394 22.3121 44.9519C23.0668 45.2645 23.7118 45.7939 24.1656 46.473C24.6194 47.1522 24.8616 47.9507 24.8616 48.7675C24.8616 49.8628 24.4265 50.9133 23.652 51.6878C22.8775 52.4623 21.827 52.8974 20.7317 52.8974ZM20.7317 37.7543C19.9149 37.7543 19.1164 37.5121 18.4372 37.0583C17.7581 36.6045 17.2287 35.9595 16.9161 35.2049C16.6035 34.4502 16.5218 33.6198 16.6811 32.8187C16.8405 32.0176 17.2338 31.2817 17.8114 30.7041C18.389 30.1265 19.1248 29.7332 19.926 29.5738C20.7271 29.4145 21.5575 29.4963 22.3121 29.8089C23.0668 30.1214 23.7118 30.6508 24.1656 31.33C24.6194 32.0091 24.8616 32.8076 24.8616 33.6244C24.8616 34.7197 24.4265 35.7702 23.652 36.5447C22.8775 37.3192 21.827 37.7543 20.7317 37.7543ZM20.7317 22.6113C19.9149 22.6113 19.1164 22.369 18.4372 21.9152C17.7581 21.4614 17.2287 20.8164 16.9161 20.0618C16.6035 19.3071 16.5218 18.4768 16.6811 17.6756C16.8405 16.8745 17.2338 16.1386 17.8114 15.561C18.389 14.9834 19.1248 14.5901 19.926 14.4308C20.7271 14.2714 21.5575 14.3532 22.3121 14.6658C23.0668 14.9784 23.7118 15.5077 24.1656 16.1869C24.6194 16.866 24.8616 17.6645 24.8616 18.4813C24.8616 19.5767 24.4265 20.6271 23.652 21.4016C22.8775 22.1761 21.827 22.6113 20.7317 22.6113ZM45.5113 52.8974C44.6944 52.8974 43.896 52.6552 43.2168 52.2014C42.5376 51.7476 42.0083 51.1026 41.6957 50.348C41.3831 49.5933 41.3013 48.7629 41.4607 47.9618C41.62 47.1607 42.0134 46.4248 42.591 45.8472C43.1685 45.2696 43.9044 44.8763 44.7056 44.7169C45.5067 44.5576 46.3371 44.6394 47.0917 44.9519C47.8464 45.2645 48.4914 45.7939 48.9452 46.473C49.399 47.1522 49.6412 47.9507 49.6412 48.7675C49.6412 49.8628 49.2061 50.9133 48.4316 51.6878C47.6571 52.4623 46.6066 52.8974 45.5113 52.8974ZM45.5113 37.7543C44.6944 37.7543 43.896 37.5121 43.2168 37.0583C42.5376 36.6045 42.0083 35.9595 41.6957 35.2049C41.3831 34.4502 41.3013 33.6198 41.4607 32.8187C41.62 32.0176 42.0134 31.2817 42.591 30.7041C43.1685 30.1265 43.9044 29.7332 44.7056 29.5738C45.5067 29.4145 46.3371 29.4963 47.0917 29.8089C47.8464 30.1214 48.4914 30.6508 48.9452 31.33C49.399 32.0091 49.6412 32.8076 49.6412 33.6244C49.6412 34.7197 49.2061 35.7702 48.4316 36.5447C47.6571 37.3192 46.6066 37.7543 45.5113 37.7543ZM45.5113 22.6113C44.6944 22.6113 43.896 22.369 43.2168 21.9152C42.5376 21.4614 42.0083 20.8164 41.6957 20.0618C41.3831 19.3071 41.3013 18.4768 41.4607 17.6756C41.62 16.8745 42.0134 16.1386 42.591 15.561C43.1685 14.9834 43.9044 14.5901 44.7056 14.4308C45.5067 14.2714 46.3371 14.3532 47.0917 14.6658C47.8464 14.9784 48.4914 15.5077 48.9452 16.1869C49.399 16.866 49.6412 17.6645 49.6412 18.4813C49.6412 19.5767 49.2061 20.6271 48.4316 21.4016C47.6571 22.1761 46.6066 22.6113 45.5113 22.6113Z" fill="#FF3030"/>
</svg>
