<svg width="67" height="67" viewBox="0 0 67 67" fill="none" xmlns="http://www.w3.org/2000/svg">
<path d="M55.2259 0.584961H11.1733C8.25523 0.594037 5.45926 1.75726 3.39586 3.82067C1.33246 5.88407 0.169233 8.68004 0.160156 11.5981V55.6507C0.169233 58.5688 1.33246 61.3648 3.39586 63.4282C5.45926 65.4916 8.25523 66.6548 11.1733 66.6639H55.2259C58.144 66.6548 60.9399 65.4916 63.0033 63.4282C65.0667 61.3648 66.23 58.5688 66.239 55.6507V11.5981C66.23 8.68004 65.0667 5.88407 63.0033 3.82067C60.9399 1.75726 58.144 0.594037 55.2259 0.584961ZM33.1996 37.7543C32.3828 37.7543 31.5843 37.5121 30.9051 37.0583C30.226 36.6045 29.6966 35.9595 29.384 35.2049C29.0715 34.4502 28.9897 33.6198 29.149 32.8187C29.3084 32.0176 29.7017 31.2817 30.2793 30.7041C30.8569 30.1265 31.5928 29.7332 32.3939 29.5738C33.195 29.4145 34.0254 29.4963 34.7801 29.8089C35.5347 30.1214 36.1797 30.6508 36.6335 31.33C37.0873 32.0091 37.3295 32.8076 37.3295 33.6244C37.3295 34.7197 36.8944 35.7702 36.1199 36.5447C35.3454 37.3192 34.2949 37.7543 33.1996 37.7543Z" fill="#FF3030"/>
</svg>
