<svg width="14" height="16" viewBox="0 0 14 16" fill="none" xmlns="http://www.w3.org/2000/svg">
<path d="M7.07216 0.276088L0.328369 0.272461V2.60295H6.67682C9.47056 2.60295 11.7449 5.05986 11.7449 8.08048C11.7449 11.04 9.56017 13.4601 6.84358 13.557H2.51257V6.13132H6.592C7.5782 6.13132 8.37751 6.99917 8.37751 8.06441C8.37751 9.12811 7.5782 9.99492 6.592 9.99492H5.80659V7.36859H3.65259V12.3244H6.98016C8.97076 12.1119 10.533 10.2669 10.533 8.06441C10.533 6.45722 9.65218 4.94173 8.33198 4.20704C7.42102 3.6998 6.41901 3.80446 5.4309 3.80187C4.48927 3.80083 0.3576 3.80135 0.3576 3.80135V15.8755L6.67682 15.8875C10.6595 15.8875 13.8989 12.3865 13.8989 8.08048C13.8993 3.92725 10.8698 0.499396 7.07216 0.276088Z" fill="white"/>
</svg>
