<svg width="11" height="12" viewBox="0 0 11 12" fill="none" xmlns="http://www.w3.org/2000/svg">
<path d="M5.07659 0.679969L0.104492 0.67749V2.2703H4.78511C6.8449 2.2703 8.52169 3.94952 8.52169 6.01401C8.52169 8.03672 6.91096 9.6908 4.90806 9.75702H1.71487V4.68183H4.72258C5.44968 4.68183 6.039 5.27497 6.039 6.00304C6.039 6.73004 5.44968 7.32247 4.72258 7.32247H4.14351V5.52746H2.55539V8.91458H5.00876C6.4764 8.76939 7.62818 7.50838 7.62818 6.00304C7.62818 4.90457 6.9788 3.86878 6.00544 3.36665C5.3338 3.01997 4.59503 3.0915 3.86651 3.08973C3.17226 3.08902 0.126044 3.08937 0.126044 3.08937V11.3417L4.78511 11.3498C7.72145 11.3498 10.1098 8.95707 10.1098 6.01401C10.1102 3.17542 7.87655 0.832593 5.07659 0.679969Z" fill="#69A5FF"/>
</svg>
