<svg width="7" height="10" viewBox="0 0 7 10" fill="none" xmlns="http://www.w3.org/2000/svg">
<path d="M6.54889 9.75066C6.4838 9.80845 6.40648 9.85431 6.32136 9.88559C6.23623 9.91688 6.14498 9.93298 6.05281 9.93298C5.96065 9.93298 5.86939 9.91688 5.78427 9.88559C5.69914 9.85431 5.62182 9.80845 5.55674 9.75066L0.898667 5.62495C0.846703 5.57902 0.805477 5.52447 0.777349 5.46441C0.74922 5.40435 0.734741 5.33996 0.734741 5.27494C0.734741 5.20992 0.74922 5.14553 0.777349 5.08547C0.805477 5.02541 0.846703 4.97086 0.898667 4.92493L5.55674 0.799219C5.8314 0.555946 6.27423 0.555946 6.54889 0.799219C6.82355 1.04249 6.82355 1.43471 6.54889 1.67798L2.4906 5.27742L6.55449 8.87687C6.82355 9.11517 6.82355 9.51235 6.54889 9.75066Z" fill="#566F9F"/>
</svg>
