<svg width="8" height="12" viewBox="0 0 8 12" fill="none" xmlns="http://www.w3.org/2000/svg">
<path d="M7.13549 0.215918C7.05841 0.147475 6.96684 0.093173 6.86603 0.0561222C6.76522 0.0190714 6.65715 -7.26095e-08 6.548 -7.13726e-08C6.43886 -7.01357e-08 6.33079 0.0190714 6.22998 0.0561222C6.12917 0.093173 6.0376 0.147475 5.96052 0.215918L0.444132 5.10184C0.382593 5.15624 0.33377 5.22085 0.300458 5.29198C0.267147 5.3631 0.25 5.43935 0.25 5.51635C0.25 5.59336 0.267147 5.66961 0.300458 5.74073C0.33377 5.81186 0.382593 5.87647 0.444132 5.93086L5.96052 10.8168C6.28579 11.1049 6.81022 11.1049 7.13549 10.8168C7.46076 10.5287 7.46076 10.0642 7.13549 9.77611L2.3294 5.51341L7.14213 1.25072C7.46076 0.968504 7.46076 0.498138 7.13549 0.215918Z" fill="white"/>
</svg>
