<svg width="53" height="47" viewBox="0 0 53 47" fill="none" xmlns="http://www.w3.org/2000/svg">
<path d="M52.8215 44.8039C52.8215 45.3122 52.6389 45.7997 52.3138 46.1591C51.9888 46.5185 51.5479 46.7205 51.0882 46.7205H2.55484C2.09513 46.7205 1.65425 46.5185 1.32918 46.1591C1.00412 45.7997 0.821503 45.3122 0.821503 44.8039C0.821503 44.2956 1.00412 43.8081 1.32918 43.4487C1.65425 43.0892 2.09513 42.8873 2.55484 42.8873H51.0882C51.5479 42.8873 51.9888 43.0892 52.3138 43.4487C52.6389 43.8081 52.8215 44.2956 52.8215 44.8039ZM2.61984 18.4989C2.51654 18.0972 2.53472 17.6692 2.6716 17.28C2.80849 16.8908 3.05659 16.5617 3.37817 16.3427L25.9115 1.01009C26.1842 0.820846 26.4996 0.720459 26.8215 0.720459C27.1434 0.720459 27.4588 0.820846 27.7315 1.01009L50.2648 16.3427C50.585 16.5621 50.8318 16.8909 50.968 17.2792C51.1041 17.6676 51.1221 18.0944 51.0192 18.495C50.9164 18.8957 50.6983 19.2484 50.398 19.4998C50.0977 19.7512 49.7315 19.8876 49.3548 19.8884H44.1548V35.221H47.6215C48.0812 35.221 48.5221 35.4229 48.8472 35.7823C49.1722 36.1418 49.3548 36.6293 49.3548 37.1376C49.3548 37.6459 49.1722 38.1334 48.8472 38.4928C48.5221 38.8522 48.0812 39.0541 47.6215 39.0541H6.0215C5.56179 39.0541 5.12091 38.8522 4.79585 38.4928C4.47079 38.1334 4.28817 37.6459 4.28817 37.1376C4.28817 36.6293 4.47079 36.1418 4.79585 35.7823C5.12091 35.4229 5.56179 35.221 6.0215 35.221H9.48817V19.8884H4.28817C3.91127 19.8888 3.54451 19.7534 3.24346 19.5027C2.94242 19.2519 2.72348 18.8995 2.61984 18.4989ZM30.2882 33.3044C30.2882 33.8127 30.4708 34.3002 30.7959 34.6596C31.1209 35.0191 31.5618 35.221 32.0215 35.221C32.4812 35.221 32.9221 35.0191 33.2472 34.6596C33.5722 34.3002 33.7548 33.8127 33.7548 33.3044V21.805C33.7548 21.2966 33.5722 20.8092 33.2472 20.4497C32.9221 20.0903 32.4812 19.8884 32.0215 19.8884C31.5618 19.8884 31.1209 20.0903 30.7959 20.4497C30.4708 20.8092 30.2882 21.2966 30.2882 21.805V33.3044ZM19.8882 33.3044C19.8882 33.8127 20.0708 34.3002 20.3959 34.6596C20.7209 35.0191 21.1618 35.221 21.6215 35.221C22.0812 35.221 22.5221 35.0191 22.8472 34.6596C23.1722 34.3002 23.3548 33.8127 23.3548 33.3044V21.805C23.3548 21.2966 23.1722 20.8092 22.8472 20.4497C22.5221 20.0903 22.0812 19.8884 21.6215 19.8884C21.1618 19.8884 20.7209 20.0903 20.3959 20.4497C20.0708 20.8092 19.8882 21.2966 19.8882 21.805V33.3044Z" fill="#FFA800"/>
</svg>
