<svg width="14" height="14" viewBox="0 0 14 14" fill="none" xmlns="http://www.w3.org/2000/svg">
<path d="M6.72602 8.20989L1.75969 13.1762C1.57387 13.362 1.33738 13.4549 1.05021 13.4549C0.763042 13.4549 0.52655 13.362 0.340734 13.1762C0.154919 12.9904 0.0620117 12.7539 0.0620117 12.4667C0.0620117 12.1796 0.154919 11.9431 0.340734 11.7573L5.30707 6.79093L0.340734 1.8246C0.154919 1.63878 0.0620117 1.40229 0.0620117 1.11512C0.0620117 0.827953 0.154919 0.59146 0.340734 0.405645C0.52655 0.21983 0.763042 0.126923 1.05021 0.126923C1.33738 0.126923 1.57387 0.21983 1.75969 0.405645L6.72602 5.37198L11.6924 0.405645C11.8782 0.21983 12.1147 0.126923 12.4018 0.126923C12.689 0.126923 12.9255 0.21983 13.1113 0.405645C13.2971 0.59146 13.39 0.827953 13.39 1.11512C13.39 1.40229 13.2971 1.63878 13.1113 1.8246L8.14498 6.79093L13.1113 11.7573C13.2971 11.9431 13.39 12.1796 13.39 12.4667C13.39 12.7539 13.2971 12.9904 13.1113 13.1762C12.9255 13.362 12.689 13.4549 12.4018 13.4549C12.1147 13.4549 11.8782 13.362 11.6924 13.1762L6.72602 8.20989Z" fill="white"/>
</svg>
