<svg width="21" height="18" viewBox="0 0 21 18" fill="none" xmlns="http://www.w3.org/2000/svg">
<path d="M2.51489 17.8332C1.8233 17.8332 1.23104 17.6353 0.738121 17.2395C0.245203 16.8437 -0.000836161 16.3684 2.13488e-06 15.8138V6.72657C2.13488e-06 6.40683 0.0892804 6.10393 0.267837 5.81785C0.446394 5.53177 0.692435 5.29617 1.00596 5.11106L8.55062 0.567451C8.78115 0.432825 9.02216 0.331856 9.27365 0.264543C9.52514 0.19723 9.78711 0.163574 10.0596 0.163574C10.332 0.163574 10.594 0.19723 10.8455 0.264543C11.0969 0.331856 11.338 0.432825 11.5685 0.567451L19.1131 5.11106C19.4275 5.29617 19.674 5.53177 19.8525 5.81785C20.0311 6.10393 20.1199 6.40683 20.1191 6.72657V15.8138C20.1191 16.3691 19.8726 16.8447 19.3797 17.2405C18.8868 17.6363 18.295 17.8338 17.6042 17.8332H12.5744V10.7653H7.54466V17.8332H2.51489Z" fill="white"/>
</svg>
