<svg width="19" height="17" viewBox="0 0 19 17" fill="none" xmlns="http://www.w3.org/2000/svg">
<path d="M18.5 15.5938C18.5 15.7678 18.4368 15.9347 18.3243 16.0578C18.2117 16.1809 18.0591 16.25 17.9 16.25H1.1C0.94087 16.25 0.788258 16.1809 0.675736 16.0578C0.563214 15.9347 0.5 15.7678 0.5 15.5938C0.5 15.4197 0.563214 15.2528 0.675736 15.1298C0.788258 15.0067 0.94087 14.9376 1.1 14.9376H17.9C18.0591 14.9376 18.2117 15.0067 18.3243 15.1298C18.4368 15.2528 18.5 15.4197 18.5 15.5938ZM1.1225 6.58717C1.08674 6.44964 1.09304 6.3031 1.14042 6.16984C1.1878 6.03659 1.27368 5.9239 1.385 5.84892L9.185 0.599168C9.27938 0.534372 9.38856 0.5 9.5 0.5C9.61144 0.5 9.72062 0.534372 9.815 0.599168L17.615 5.84892C17.7258 5.92404 17.8113 6.03661 17.8584 6.16957C17.9055 6.30254 17.9117 6.44867 17.8761 6.58586C17.8405 6.72305 17.7651 6.84382 17.6611 6.9299C17.5571 7.01597 17.4304 7.06267 17.3 7.06293H15.5V12.3127H16.7C16.8591 12.3127 17.0117 12.3818 17.1243 12.5049C17.2368 12.628 17.3 12.7949 17.3 12.9689C17.3 13.1429 17.2368 13.3099 17.1243 13.4329C17.0117 13.556 16.8591 13.6251 16.7 13.6251H2.3C2.14087 13.6251 1.98826 13.556 1.87574 13.4329C1.76321 13.3099 1.7 13.1429 1.7 12.9689C1.7 12.7949 1.76321 12.628 1.87574 12.5049C1.98826 12.3818 2.14087 12.3127 2.3 12.3127H3.5V7.06293H1.7C1.56954 7.06308 1.44258 7.01672 1.33837 6.93087C1.23416 6.84502 1.15838 6.72436 1.1225 6.58717ZM10.7 11.6565C10.7 11.8305 10.7632 11.9974 10.8757 12.1205C10.9883 12.2435 11.1409 12.3127 11.3 12.3127C11.4591 12.3127 11.6117 12.2435 11.7243 12.1205C11.8368 11.9974 11.9 11.8305 11.9 11.6565V7.71915C11.9 7.54511 11.8368 7.3782 11.7243 7.25513C11.6117 7.13207 11.4591 7.06293 11.3 7.06293C11.1409 7.06293 10.9883 7.13207 10.8757 7.25513C10.7632 7.3782 10.7 7.54511 10.7 7.71915V11.6565ZM7.1 11.6565C7.1 11.8305 7.16321 11.9974 7.27574 12.1205C7.38826 12.2435 7.54087 12.3127 7.7 12.3127C7.85913 12.3127 8.01174 12.2435 8.12426 12.1205C8.23679 11.9974 8.3 11.8305 8.3 11.6565V7.71915C8.3 7.54511 8.23679 7.3782 8.12426 7.25513C8.01174 7.13207 7.85913 7.06293 7.7 7.06293C7.54087 7.06293 7.38826 7.13207 7.27574 7.25513C7.16321 7.3782 7.1 7.54511 7.1 7.71915V11.6565Z" fill="white"/>
</svg>
