<svg width="30" height="29" viewBox="0 0 30 29" fill="none" xmlns="http://www.w3.org/2000/svg">
<path d="M15 29C18.7793 29 22.4039 27.4987 25.0763 24.8263C27.7487 22.1539 29.25 18.5293 29.25 14.75C29.25 10.9707 27.7487 7.34612 25.0763 4.67373C22.4039 2.00134 18.7793 0.5 15 0.5C11.2207 0.5 7.59612 2.00134 4.92373 4.67373C2.25134 7.34612 0.75 10.9707 0.75 14.75C0.75 18.5293 2.25134 22.1539 4.92373 24.8263C7.59612 27.4987 11.2207 29 15 29ZM16.6566 12.2349L14.8753 20.6157C14.7506 21.2213 14.927 21.5651 15.4168 21.5651C15.7624 21.5651 16.2843 21.4404 16.6388 21.1269L16.482 21.8679C15.9708 22.4842 14.8433 22.9331 13.8725 22.9331C12.6202 22.9331 12.0877 22.1814 12.4332 20.5836L13.7478 14.4062C13.8618 13.8843 13.7585 13.6955 13.2366 13.569L12.4332 13.4248L12.5793 12.7461L16.6566 12.2349ZM15 10.2969C14.5276 10.2969 14.0745 10.1092 13.7405 9.77516C13.4064 9.44111 13.2188 8.98804 13.2188 8.51562C13.2188 8.04321 13.4064 7.59014 13.7405 7.25609C14.0745 6.92204 14.5276 6.73438 15 6.73438C15.4724 6.73438 15.9255 6.92204 16.2595 7.25609C16.5936 7.59014 16.7812 8.04321 16.7812 8.51562C16.7812 8.98804 16.5936 9.44111 16.2595 9.77516C15.9255 10.1092 15.4724 10.2969 15 10.2969Z" fill="white"/>
</svg>
