<svg width="24" height="13" viewBox="0 0 24 13" fill="none" xmlns="http://www.w3.org/2000/svg">
<path d="M17.4069 0.665649H12.7675V2.98533H17.4069C19.3206 2.98533 20.8864 4.55111 20.8864 6.46485C20.8864 8.37859 19.3206 9.94437 17.4069 9.94437H12.7675V12.2641H17.4069C20.608 12.2641 23.2061 9.66601 23.2061 6.46485C23.2061 3.26369 20.608 0.665649 17.4069 0.665649ZM10.4478 9.94437H5.80848C3.89474 9.94437 2.32896 8.37859 2.32896 6.46485C2.32896 4.55111 3.89474 2.98533 5.80848 2.98533H10.4478V0.665649H5.80848C2.60732 0.665649 0.00927734 3.26369 0.00927734 6.46485C0.00927734 9.66601 2.60732 12.2641 5.80848 12.2641H10.4478V9.94437ZM6.96832 5.30501H16.247V7.62469H6.96832V5.30501Z" fill="#F1A40F"/>
</svg>
