<svg width="24" height="13" viewBox="0 0 24 13" fill="none" xmlns="http://www.w3.org/2000/svg">
<path d="M18.1308 0.963623H13.4616V3.2982H18.1308C20.0568 3.2982 21.6326 4.87404 21.6326 6.80006C21.6326 8.72608 20.0568 10.3019 18.1308 10.3019H13.4616V12.6365H18.1308C21.3525 12.6365 23.9672 10.0218 23.9672 6.80006C23.9672 3.57835 21.3525 0.963623 18.1308 0.963623ZM11.127 10.3019H6.4579C4.53187 10.3019 2.95603 8.72608 2.95603 6.80006C2.95603 4.87404 4.53187 3.2982 6.4579 3.2982H11.127V0.963623H6.4579C3.23618 0.963623 0.62146 3.57835 0.62146 6.80006C0.62146 10.0218 3.23618 12.6365 6.4579 12.6365H11.127V10.3019ZM7.62518 5.63277H16.9635V7.96735H7.62518V5.63277Z" fill="white"/>
</svg>
