<svg width="14" height="13" viewBox="0 0 14 13" fill="none" xmlns="http://www.w3.org/2000/svg">
<path d="M7.01679 10.5913L3.91781 12.4431C3.78091 12.5296 3.63778 12.5666 3.48843 12.5543C3.33908 12.5419 3.2084 12.4925 3.09639 12.4061C2.98438 12.3197 2.89726 12.2115 2.83503 12.0817C2.7728 11.9518 2.76036 11.8069 2.7977 11.6469L3.61911 8.14692L0.874836 5.79512C0.750379 5.68401 0.672718 5.55734 0.641852 5.41512C0.610987 5.2729 0.620197 5.13414 0.669482 4.99883C0.719265 4.86303 0.793939 4.75192 0.893504 4.66551C0.99307 4.57909 1.12997 4.52353 1.30421 4.49884L4.92591 4.18403L6.32605 0.887796C6.38828 0.739651 6.48486 0.628541 6.61579 0.554469C6.74672 0.480396 6.88038 0.443359 7.01679 0.443359C7.15369 0.443359 7.28736 0.480396 7.41779 0.554469C7.54822 0.628541 7.6448 0.739651 7.70752 0.887796L9.10766 4.18403L12.7294 4.49884C12.9036 4.52353 13.0405 4.57909 13.1401 4.66551C13.2396 4.75192 13.3143 4.86303 13.3641 4.99883C13.4139 5.13463 13.4233 5.27364 13.3925 5.41586C13.3616 5.55808 13.2837 5.6845 13.1587 5.79512L10.4145 8.14692L11.2359 11.6469C11.2732 11.8074 11.2608 11.9525 11.1985 12.0824C11.1363 12.2123 11.0492 12.3202 10.9372 12.4061C10.8252 12.4925 10.6945 12.5419 10.5451 12.5543C10.3958 12.5666 10.2527 12.5296 10.1158 12.4431L7.01679 10.5913Z" fill="#FFC700"/>
</svg>
