<svg width="22" height="22" viewBox="0 0 22 22" fill="none" xmlns="http://www.w3.org/2000/svg">
<path d="M11.2275 18.4583C8.64279 18.4583 6.35791 17.135 5.0242 15.1499C5.05522 13.0821 9.15974 11.9449 11.2275 11.9449C13.2953 11.9449 17.3998 13.0821 17.4308 15.1499C16.7473 16.1677 15.824 17.0017 14.7422 17.5787C13.6605 18.1556 12.4535 18.4577 11.2275 18.4583ZM11.2275 3.77719C12.0501 3.77719 12.839 4.10397 13.4207 4.68564C14.0024 5.26731 14.3292 6.05623 14.3292 6.87883C14.3292 7.70144 14.0024 8.49036 13.4207 9.07203C12.839 9.6537 12.0501 9.98048 11.2275 9.98048C10.4049 9.98048 9.61598 9.6537 9.0343 9.07203C8.45263 8.49036 8.12585 7.70144 8.12585 6.87883C8.12585 6.05623 8.45263 5.26731 9.0343 4.68564C9.61598 4.10397 10.4049 3.77719 11.2275 3.77719ZM11.2275 0.675537C9.86979 0.675537 8.52537 0.942959 7.271 1.46253C6.01664 1.98211 4.87689 2.74366 3.91685 3.70371C1.97794 5.64262 0.888672 8.27234 0.888672 11.0144C0.888672 13.7564 1.97794 16.3861 3.91685 18.325C4.87689 19.2851 6.01664 20.0466 7.271 20.5662C8.52537 21.0858 9.86979 21.3532 11.2275 21.3532C13.9695 21.3532 16.5993 20.2639 18.5382 18.325C20.4771 16.3861 21.5663 13.7564 21.5663 11.0144C21.5663 5.29699 16.9139 0.675537 11.2275 0.675537Z" fill="#42567E"/>
</svg>
