<svg width="24" height="19" viewBox="0 0 24 19" fill="none" xmlns="http://www.w3.org/2000/svg">
<path d="M20.5134 5.22754H3.79413C2.40906 5.22754 1.28624 6.19338 1.28624 7.3848V16.0138C1.28624 17.2053 2.40906 18.1711 3.79413 18.1711H20.5134C21.8984 18.1711 23.0213 17.2053 23.0213 16.0138V7.3848C23.0213 6.19338 21.8984 5.22754 20.5134 5.22754Z" stroke="white" stroke-width="1.21546" stroke-linejoin="round"/>
<path d="M20.1614 5.11653V3.66437C20.1613 3.3082 20.0768 2.95645 19.914 2.63422C19.7512 2.31198 19.514 2.0272 19.2195 1.80019C18.925 1.57318 18.5804 1.40954 18.2102 1.32095C17.8399 1.23235 17.4533 1.22099 17.0779 1.28766L3.39733 3.46349C2.80323 3.56899 2.26727 3.86437 1.88188 4.29869C1.49649 4.73302 1.28583 5.27905 1.28624 5.84262V8.21448" stroke="white" stroke-width="1.21546" stroke-linejoin="round"/>
<path d="M17.873 13.1928C17.5336 13.1928 17.2019 13.1052 16.9197 12.9411C16.6375 12.777 16.4176 12.5437 16.2877 12.2708C16.1578 11.9979 16.1239 11.6976 16.1901 11.4079C16.2563 11.1182 16.4197 10.8521 16.6597 10.6432C16.8996 10.4344 17.2054 10.2921 17.5383 10.2345C17.8711 10.1769 18.2161 10.2065 18.5297 10.3195C18.8432 10.4325 19.1112 10.624 19.2997 10.8696C19.4883 11.1152 19.5889 11.4039 19.5889 11.6993C19.5889 12.0954 19.4081 12.4753 19.0864 12.7554C18.7646 13.0354 18.3281 13.1928 17.873 13.1928Z" fill="white"/>
</svg>
