<svg width="7" height="10" viewBox="0 0 7 10" fill="none" xmlns="http://www.w3.org/2000/svg">
<path d="M0.519774 0.615917C0.584861 0.558123 0.662181 0.51227 0.747306 0.480984C0.832431 0.449698 0.923688 0.433594 1.01585 0.433594C1.10801 0.433594 1.19927 0.449698 1.2844 0.480984C1.36952 0.51227 1.44684 0.558123 1.51193 0.615917L6.17 4.74162C6.22196 4.78755 6.26319 4.84211 6.29132 4.90217C6.31944 4.96223 6.33392 5.02661 6.33392 5.09164C6.33392 5.15666 6.31945 5.22104 6.29132 5.2811C6.26319 5.34116 6.22196 5.39572 6.17 5.44165L1.51193 9.56736C1.23726 9.81063 0.794439 9.81063 0.519775 9.56736C0.245112 9.32409 0.245112 8.93187 0.519775 8.6886L4.57807 5.08915L0.51417 1.48971C0.245112 1.2514 0.245111 0.854225 0.519774 0.615917Z" fill="#566F9F"/>
</svg>
