<svg width="24" height="19" viewBox="0 0 24 19" fill="none" xmlns="http://www.w3.org/2000/svg">
<path d="M20.5134 5.22766H3.79414C2.40907 5.22766 1.28625 6.1935 1.28625 7.38492V16.014C1.28625 17.2054 2.40907 18.1712 3.79414 18.1712H20.5134C21.8985 18.1712 23.0213 17.2054 23.0213 16.014V7.38492C23.0213 6.1935 21.8985 5.22766 20.5134 5.22766Z" stroke="#FFA800" stroke-width="1.21546" stroke-linejoin="round"/>
<path d="M20.1614 5.11666V3.66449C20.1613 3.30833 20.0768 2.95658 19.914 2.63434C19.7512 2.3121 19.5141 2.02732 19.2195 1.80031C18.925 1.5733 18.5804 1.40966 18.2102 1.32107C17.84 1.23247 17.4533 1.22111 17.0779 1.28778L3.39735 3.46361C2.80325 3.56911 2.26729 3.86449 1.88189 4.29882C1.4965 4.73314 1.28585 5.27917 1.28626 5.84274V8.21461" stroke="#FFA800" stroke-width="1.21546" stroke-linejoin="round"/>
<path d="M17.873 13.193C17.5337 13.193 17.2019 13.1054 16.9197 12.9413C16.6375 12.7772 16.4176 12.5439 16.2877 12.271C16.1578 11.9981 16.1239 11.6978 16.1901 11.4081C16.2563 11.1184 16.4197 10.8523 16.6597 10.6434C16.8997 10.4346 17.2054 10.2923 17.5383 10.2347C17.8711 10.1771 18.2161 10.2066 18.5297 10.3197C18.8432 10.4327 19.1112 10.6241 19.2998 10.8697C19.4883 11.1153 19.5889 11.4041 19.5889 11.6995C19.5889 12.0956 19.4082 12.4755 19.0864 12.7555C18.7646 13.0356 18.3281 13.193 17.873 13.193Z" fill="#FFA800"/>
</svg>
