<svg width="23" height="22" viewBox="0 0 23 22" fill="none" xmlns="http://www.w3.org/2000/svg">
<g clip-path="url(#clip0_1_404)">
<path d="M16.531 10.9722C16.5285 10.1785 16.4435 9.38729 16.2772 8.61124H18.4021C18.2926 8.28752 18.1605 7.97194 18.0066 7.66685H16.0293C15.6576 6.42501 15.081 5.25399 14.3235 4.20212C13.8395 3.99861 13.3348 3.8482 12.8184 3.75354C13.8562 4.86865 14.6396 6.19578 15.1144 7.64324H11.933V3.6532H11.0476V7.64914H7.86623C8.342 6.19906 9.12747 4.8698 10.1682 3.75354C9.65393 3.84662 9.15127 3.99505 8.66896 4.19622C7.9084 5.24368 7.3279 6.41067 6.95135 7.64914H4.96223C4.80556 7.95981 4.67143 8.28133 4.56087 8.61124H6.70345C6.53717 9.38729 6.45211 10.1785 6.44964 10.9722C6.45127 11.8403 6.55027 12.7055 6.74476 13.5516H4.65531C4.77742 13.8824 4.92339 14.204 5.09209 14.5137H6.99857C7.35992 15.6444 7.89562 16.7119 8.58632 17.6774C9.08093 17.8895 9.59762 18.0459 10.1269 18.1437C9.16353 17.0929 8.42268 15.8581 7.94886 14.5137H11.0535V18.2558H11.9389V14.5137H15.0318C14.5563 15.8587 13.8134 17.0935 12.8479 18.1437C13.3796 18.0425 13.8983 17.8822 14.3943 17.6656C15.0839 16.7037 15.6196 15.6403 15.9821 14.5137H17.8708C18.0388 14.2097 18.1847 13.8941 18.3076 13.5693H16.2123C16.416 12.7184 16.5229 11.8471 16.531 10.9722ZM11.0476 13.5516H7.65964C7.24409 11.9271 7.22587 10.2265 7.60652 8.59353H11.0476V13.5516ZM15.321 13.5516H11.933V8.61124H15.3741C15.5437 9.38666 15.6268 10.1785 15.622 10.9722C15.6268 11.841 15.5257 12.7072 15.321 13.5516Z" fill="white"/>
<path d="M11.4895 1.52844C9.62165 1.52844 7.79577 2.08232 6.24273 3.12002C4.68969 4.15773 3.47925 5.63266 2.76446 7.35831C2.04968 9.08395 1.86266 10.9828 2.22705 12.8147C2.59145 14.6467 3.49089 16.3294 4.81164 17.6502C6.13239 18.9709 7.81513 19.8703 9.64706 20.2347C11.479 20.5991 13.3778 20.4121 15.1035 19.6973C16.8291 18.9825 18.3041 17.7721 19.3418 16.2191C20.3795 14.666 20.9333 12.8401 20.9333 10.9723C20.9333 8.46765 19.9384 6.06556 18.1673 4.29449C16.3962 2.52342 13.9941 1.52844 11.4895 1.52844ZM11.4895 19.2357C9.85512 19.2357 8.25748 18.7511 6.89857 17.8431C5.53967 16.9351 4.48053 15.6445 3.85509 14.1346C3.22965 12.6246 3.06601 10.9632 3.38485 9.36021C3.7037 7.75727 4.49071 6.28488 5.64637 5.12922C6.80202 3.97356 8.27442 3.18655 9.87736 2.86771C11.4803 2.54886 13.1418 2.7125 14.6517 3.33794C16.1617 3.96338 17.4522 5.02252 18.3602 6.38143C19.2682 7.74033 19.7529 9.33798 19.7529 10.9723C19.7529 13.1639 18.8823 15.2657 17.3326 16.8154C15.7829 18.3651 13.6811 19.2357 11.4895 19.2357Z" fill="white"/>
</g>
<defs>
<clipPath id="clip0_1_404">
<rect width="21.2487" height="21.2487" fill="white" transform="translate(0.86578 0.3479)"/>
</clipPath>
</defs>
</svg>
